<svg xmlns="http://www.w3.org/2000/svg" viewBox="0 0 1162.11 845.21"><defs><style>.cls-1{fill:#f2f2f2;}.cls-2{fill:#06061b;}.cls-3{fill:#3f3d56;}.cls-4{fill:#6c63ff;}.cls-5{fill:#2f2e41;}.cls-6{fill:#fff;}.cls-7{fill:#ffb6b6;}.cls-8{fill:#e6e6e6;}.cls-9{fill:#f0f;}.cls-10{isolation:isolate;opacity:0.2;}</style></defs><g id="Layer_2" data-name="Layer 2"><g id="Layer_1-2" data-name="Layer 1"><circle class="cls-1" cx="676.93" cy="109.56" r="39.44"/><path class="cls-1" d="M982.85,734.28c58.62-44.65,86.62-119.67,69.09-191.24q-.66-2.67-1.38-5.32c-11.62-42.49-40.37-82.86-82.27-96.44-35.18-11.39-73.58-2.63-110.28-7.16-72-8.9-127.91-67.2-167.21-128.23S621.29,176.53,569.06,126.1C483,43,342.55,25.09,235.82,79.19S61.09,253.33,64,373s73.92,234,177.06,294.68c37.88,22.29,81.71,38.08,125.32,32.56,37.84-4.8,72.22-25.13,109.88-31.17,59.21-9.49,118,17.29,169.27,48.48S746.2,785.69,804.4,800.15C860.91,814.2,930.92,773.83,982.85,734.28Z"/><path class="cls-2" d="M898.63,81.71c-1.28-.86-2.58-1.67-3.87-2.5a561.79,561.79,0,0,0-118.61-57.5L766.49,155H705.25V2.26C701.4,1.46,697.51.71,693.63,0V155H620.86a151,151,0,0,1-151-151h0c-3.9.85-7.77,1.75-11.64,2.71V155H398.9L389.69,27.9a562.7,562.7,0,0,0-121,64.29l-1.93,1.35c-3.27,2.29-6.49,4.62-9.69,7V608.88H431.73l-3.09-42.75-17-234.77H753.71l-17,234.77-3.08,42.75H906.39v-522Q902.54,84.23,898.63,81.71ZM458.17,292.59H408.85l-9.11-126h58.43Zm235.46,0H610.8v-2.5a9.12,9.12,0,0,0-9.13-9.12h-36a9.12,9.12,0,0,0-9.13,9.12h0v2.5H469.81v-126H693.63Zm11.62,0v-126h60.39l-9.11,126Z"/><path class="cls-2" d="M0,641.44A427.76,427.76,0,0,0,41.53,684.2l1079.05,1.47a424.53,424.53,0,0,0,41.53-42.76Z"/><path class="cls-3" d="M731.74,504.52V631.11a6.08,6.08,0,0,0,6.08,6.08H925.41a6.09,6.09,0,0,0,6.08-6.08V504.52a6.09,6.09,0,0,0-6.08-6.07H737.82A6.09,6.09,0,0,0,731.74,504.52Z"/><path class="cls-4" d="M736.14,506.1V629.54a3.26,3.26,0,0,0,3.25,3.26H923.84a3.26,3.26,0,0,0,3.25-3.26V506.1a3.25,3.25,0,0,0-3.25-3.26H739.39A3.25,3.25,0,0,0,736.14,506.1Z"/><path class="cls-5" d="M727.82,655.79a3.64,3.64,0,0,0,2.87,1.38H931.54a3.7,3.7,0,0,0,3.69-3.7,3.84,3.84,0,0,0-.07-.76L932,637.9a3.68,3.68,0,0,0-2.3-2.68,3.52,3.52,0,0,0-1.32-.25H733.79a3.47,3.47,0,0,0-1.31.25,3.68,3.68,0,0,0-2.3,2.68l-3.12,14.81A3.68,3.68,0,0,0,727.82,655.79Z"/><rect class="cls-3" x="920.81" y="637.64" width="6.19" height="3.71" rx="0.72"/><rect class="cls-3" x="908.44" y="637.64" width="6.19" height="3.71" rx="0.72"/><rect class="cls-3" x="896.07" y="637.64" width="6.19" height="3.71" rx="0.72"/><rect class="cls-3" x="883.69" y="637.64" width="6.19" height="3.71" rx="0.72"/><rect class="cls-3" x="871.32" y="637.64" width="6.19" height="3.71" rx="0.72"/><rect class="cls-3" x="858.95" y="637.64" width="6.19" height="3.71" rx="0.72"/><rect class="cls-3" x="846.58" y="637.64" width="6.19" height="3.71" rx="0.72"/><rect class="cls-3" x="834.2" y="637.64" width="6.19" height="3.71" rx="0.72"/><rect class="cls-3" x="821.83" y="637.64" width="6.19" height="3.71" rx="0.72"/><rect class="cls-3" x="809.46" y="637.64" width="6.19" height="3.71" rx="0.72"/><rect class="cls-3" x="797.09" y="637.64" width="6.19" height="3.71" rx="0.72"/><rect class="cls-3" x="784.71" y="637.64" width="6.19" height="3.71" rx="0.72"/><rect class="cls-3" x="772.34" y="637.64" width="6.19" height="3.71" rx="0.72"/><rect class="cls-3" x="759.97" y="637.64" width="6.19" height="3.71" rx="0.72"/><rect class="cls-3" x="747.6" y="637.64" width="6.19" height="3.71" rx="0.72"/><rect class="cls-3" x="735.22" y="637.64" width="6.19" height="3.71" rx="0.72"/><rect class="cls-3" x="920.96" y="643.82" width="6.19" height="3.71" rx="0.72"/><rect class="cls-3" x="908.59" y="643.82" width="6.19" height="3.71" rx="0.72"/><rect class="cls-3" x="896.21" y="643.82" width="6.19" height="3.71" rx="0.72"/><rect class="cls-3" x="883.84" y="643.82" width="6.19" height="3.71" rx="0.72"/><rect class="cls-3" x="871.47" y="643.82" width="6.19" height="3.71" rx="0.72"/><rect class="cls-3" x="859.1" y="643.82" width="6.19" height="3.71" rx="0.72"/><rect class="cls-3" x="846.72" y="643.82" width="6.19" height="3.71" rx="0.72"/><rect class="cls-3" x="834.35" y="643.82" width="6.19" height="3.71" rx="0.72"/><rect class="cls-3" x="821.98" y="643.82" width="6.19" height="3.71" rx="0.72"/><rect class="cls-3" x="809.6" y="643.82" width="6.19" height="3.71" rx="0.72"/><rect class="cls-3" x="797.23" y="643.82" width="6.19" height="3.71" rx="0.72"/><rect class="cls-3" x="784.86" y="643.82" width="6.19" height="3.71" rx="0.72"/><rect class="cls-3" x="772.49" y="643.82" width="6.19" height="3.71" rx="0.72"/><rect class="cls-3" x="760.11" y="643.82" width="6.19" height="3.71" rx="0.72"/><rect class="cls-3" x="747.74" y="643.82" width="6.19" height="3.71" rx="0.72"/><rect class="cls-3" x="735.37" y="643.82" width="6.19" height="3.71" rx="0.72"/><rect class="cls-3" x="818.27" y="651.25" width="49.49" height="3.71" rx="0.72"/><rect class="cls-6" x="761.58" y="529.85" width="8.81" height="4.61" rx="2.31"/><rect class="cls-6" x="809.61" y="529.85" width="8.81" height="4.61" rx="2.31"/><rect class="cls-6" x="823.22" y="529.85" width="8.81" height="4.61" rx="2.31"/><rect class="cls-6" x="774.64" y="529.46" width="30.72" height="4.61" rx="2.31"/><rect class="cls-6" x="838.69" y="529.46" width="30.72" height="4.61" rx="2.31"/><rect class="cls-6" x="774.38" y="540.25" width="8.81" height="4.61" rx="2.31"/><rect class="cls-6" x="822.42" y="540.25" width="8.81" height="4.61" rx="2.31"/><rect class="cls-6" x="836.03" y="540.25" width="8.81" height="4.61" rx="2.31"/><rect class="cls-6" x="787.45" y="539.87" width="30.72" height="4.61" rx="2.31"/><rect class="cls-6" x="851.5" y="539.87" width="30.72" height="4.61" rx="2.31"/><rect class="cls-6" x="787.19" y="550.66" width="8.81" height="4.61" rx="2.31"/><rect class="cls-6" x="835.23" y="550.66" width="8.81" height="4.61" rx="2.31"/><rect class="cls-6" x="848.84" y="550.66" width="8.81" height="4.61" rx="2.31"/><rect class="cls-6" x="800.26" y="550.28" width="30.72" height="4.61" rx="2.31"/><rect class="cls-6" x="864.31" y="550.28" width="30.72" height="4.61" rx="2.31"/><rect class="cls-6" x="800" y="561.07" width="8.81" height="4.61" rx="2.31"/><rect class="cls-6" x="848.04" y="561.07" width="8.81" height="4.61" rx="2.31"/><rect class="cls-6" x="861.65" y="561.07" width="8.81" height="4.61" rx="2.31"/><rect class="cls-6" x="813.07" y="560.69" width="30.72" height="4.61" rx="2.31"/><rect class="cls-6" x="809.61" y="602.46" width="8.81" height="4.61" rx="2.31"/><rect class="cls-6" x="823.22" y="602.46" width="8.81" height="4.61" rx="2.31"/><rect class="cls-6" x="838.69" y="602.84" width="30.72" height="4.61" rx="2.31"/><rect class="cls-6" x="761.58" y="602.46" width="8.81" height="4.61" rx="2.31"/><rect class="cls-6" x="774.64" y="602.84" width="30.72" height="4.61" rx="2.31"/><rect class="cls-6" x="774.38" y="592.05" width="8.81" height="4.61" rx="2.31"/><rect class="cls-6" x="822.42" y="592.05" width="8.81" height="4.61" rx="2.31"/><rect class="cls-6" x="836.03" y="592.05" width="8.81" height="4.61" rx="2.31"/><rect class="cls-6" x="787.45" y="592.43" width="30.72" height="4.61" rx="2.31"/><rect class="cls-6" x="787.19" y="581.64" width="8.81" height="4.61" rx="2.31"/><rect class="cls-6" x="835.23" y="581.64" width="8.81" height="4.61" rx="2.31"/><rect class="cls-6" x="848.84" y="581.64" width="8.81" height="4.61" rx="2.31"/><rect class="cls-6" x="800.26" y="582.02" width="30.72" height="4.61" rx="2.31"/><rect class="cls-6" x="800" y="571.23" width="8.81" height="4.61" rx="2.31"/><rect class="cls-6" x="848.04" y="571.23" width="8.81" height="4.61" rx="2.31"/><rect class="cls-6" x="861.65" y="571.23" width="8.81" height="4.61" rx="2.31"/><rect class="cls-6" x="813.07" y="571.62" width="30.72" height="4.61" rx="2.31"/><path class="cls-7" d="M745.75,724.43,726,693.26l61.89-49.33,25.55-28.3a28.3,28.3,0,0,1,47.88,10.08h0a28.31,28.31,0,0,1-17.09,35.44L803.87,676Z"/><path class="cls-2" d="M283.12,498.45V649.93H389.24V498.45a5.07,5.07,0,0,0-3.59-4.87,4.88,4.88,0,0,0-1.52-.24H288.25a5.12,5.12,0,0,0-5.13,5.11Zm41.42,52.05a11.33,11.33,0,0,1,22.65,0v17.58a11.33,11.33,0,0,1-22.65,0Z"/><path class="cls-3" d="M282.8,645.09v14.6a2.87,2.87,0,0,0,2.85,2.87H386.72a2.87,2.87,0,0,0,2.85-2.87v-14.6Z"/><path class="cls-3" d="M116.18,270.23V546.81a13.3,13.3,0,0,0,13.29,13.29H539.33a13.31,13.31,0,0,0,13.3-13.29V270.23A13.32,13.32,0,0,0,539.33,257H129.47A13.31,13.31,0,0,0,116.18,270.23Z"/><path class="cls-6" d="M125.79,273.67V543.4a7.12,7.12,0,0,0,7.11,7.1h403a7.12,7.12,0,0,0,7.11-7.1V273.67a7.13,7.13,0,0,0-7.11-7.12h-403A7.12,7.12,0,0,0,125.79,273.67Z"/><path class="cls-5" d="M200.59,661.57a4.37,4.37,0,0,0,3.42,1.64H443.79a4.4,4.4,0,0,0,4.4-4.42,4.58,4.58,0,0,0-.09-.9l-3.72-17.68a4.43,4.43,0,0,0-2.75-3.2,4.2,4.2,0,0,0-1.56-.3H207.72a4.2,4.2,0,0,0-1.56.3,4.41,4.41,0,0,0-2.75,3.2l-3.72,17.68A4.4,4.4,0,0,0,200.59,661.57Z"/><path class="cls-3" d="M522.84,303.71H145.73a1.5,1.5,0,0,1,0-3H522.84a1.5,1.5,0,0,1,0,3Z"/><ellipse class="cls-3" cx="171.41" cy="284.07" rx="8.79" ry="8.98"/><ellipse class="cls-3" cx="201.77" cy="284.07" rx="8.79" ry="8.98"/><ellipse class="cls-3" cx="232.13" cy="284.07" rx="8.79" ry="8.98"/><path class="cls-3" d="M504.56,277.3H483a1.64,1.64,0,0,0,0,3.27h21.56a1.64,1.64,0,0,0,0-3.27Z"/><path class="cls-3" d="M504.56,283.43H483a1.64,1.64,0,0,0,0,3.27h21.56a1.64,1.64,0,0,0,0-3.27Z"/><path class="cls-3" d="M504.56,289.56H483a1.64,1.64,0,0,0,0,3.27h21.56a1.64,1.64,0,0,0,0-3.27Z"/><path class="cls-5" d="M1024.42,651.5a9.48,9.48,0,0,0,9.14,6.39l39.12-1a9.35,9.35,0,0,0,8.84-6.88l5.54-59.21a14.48,14.48,0,0,0,6.25,1.29,14.27,14.27,0,1,0-.71-28.53,11.74,11.74,0,0,0-2.57.26,9.65,9.65,0,0,0-7.19-3.1l-60.19,1.55a8.32,8.32,0,0,0-1.49.19,9.4,9.4,0,0,0-7.52,11,8.71,8.71,0,0,0,.33,1.24Zm63.77-64.72,3.94-14.11a9.56,9.56,0,0,0,0-5c.19,0,.36-.09.55-.09a10.2,10.2,0,0,1,.48,20.4A9.61,9.61,0,0,1,1088.19,586.78Z"/><path class="cls-3" d="M1021.16,562.46c1.29,7.33,15.7,12.48,33,11.59,15.94-.74,29-6.34,31.36-13a8.93,8.93,0,0,0-2.72-.36l-60.19,1.55A8.32,8.32,0,0,0,1021.16,562.46Z"/><path class="cls-4" d="M1057.37,619a.67.67,0,0,0,.23-.1l8.49-5.56a.73.73,0,0,0,.22-1,.63.63,0,0,0-.22-.21l-8.83-5.79a.74.74,0,0,0-1,.21.75.75,0,0,0,.21,1l7.89,5.16-7.55,5a.73.73,0,0,0,.58,1.33Z"/><path class="cls-4" d="M1044,619.58a.74.74,0,0,0,.54-.9.77.77,0,0,0-.35-.46l-7.83-4.49,7.57-5.62a.74.74,0,0,0,.15-1,.73.73,0,0,0-1-.15l-8.48,6.29a.74.74,0,0,0-.15,1,.69.69,0,0,0,.22.2l8.81,5A.71.71,0,0,0,1044,619.58Z"/><path class="cls-4" d="M1056.53,623.84a.72.72,0,0,0,.2-.09.74.74,0,0,0,.25-1h0l-12-19.8a.73.73,0,0,0-1-.25.75.75,0,0,0-.25,1l12,19.8A.75.75,0,0,0,1056.53,623.84Z"/><rect class="cls-4" x="309.26" y="385.24" width="74.91" height="16.02" rx="4.82"/><rect class="cls-8" x="271.21" y="417.27" width="151" height="16.02" rx="4.82"/><rect class="cls-8" x="271.21" y="449.31" width="151" height="16.02" rx="4.82"/><path class="cls-9" d="M429.37,556.59l.32,1,0,0,9.64,29.3,11.08,33.76,20.86,63.46.21,9.85v0l1.55,79.29-4.3,10.75,4.84,17.62s-2.23-26.64-14.16-11.34c-6.75,8.69-14.66,17.59-21.14,25.93q14.18,5.73,28.81,10.38c2.1.67,4.23,1.31,6.35,2l1.37.41a394.51,394.51,0,0,0,99.47,16c1.75.05,3.47.08,5.14.11.59,0,1.16,0,1.74,0,1.88,0,3.75,0,5.64,0,3.81,0,7.6-.05,11.37-.17A393.73,393.73,0,0,0,681,833.84c-.19-11.21-.69-24.3-1.42-38.28-.33-6.86-7.9-14.29-8.35-21.47-.32-5.39,6.47-10.46,6.11-15.94-2.29-33.71-5.15-20.77-7.28-44.64q-.33-3.53-.6-6.73c-1.37-15.33-2.31-24.92-2.31-24.92l9.06-57.13L690.48,535l-1.09-1.81-1.23-.6-75.1-37.17L609,485a16.21,16.21,0,0,0-15-10.26l-49.46-.2a16.16,16.16,0,0,0-13.16,6.69L518,499.78Z"/><path class="cls-9" d="M482.7,670l-11.2,24-7.65,16.38-13.16,68.89-6.59,7-5.64-24.76-59.08,13.12c-1.94-10.77-.52.36-1.72-11.45l1-1c.94-.87,1.73-1.7,1.72-2.49-.68-40.74,1.35-110.07,18.23-152.08A88.47,88.47,0,0,1,409,588.25c.33-.45.65-.91,1-1.36,7.79-10.9,12.71-21.64,19.68-29.27v0a.43.43,0,0,0,.12-.11l.07,0L477.8,532l2.05,57.75,1.47,41.52Z"/><path class="cls-9" d="M655.48,676.85l14,29.94,4.89,10.43,13.15,68.89,6.57,7,5.65-24.74,2.66-.55,47.94-9.93,14,44.38A26.56,26.56,0,0,0,759.5,769c-1-.86-1.75-1.7-1.73-2.5.8-47.92-2.13-135.41-28.6-171.43-8.41-11.42-13.45-22.81-20.79-30.76,0,0,0,0,0,0L690.47,535l-1.09-1.79-1.22-.61Z"/><circle id="a657ec4b-47ce-4d2a-9c58-81a811696ca9" class="cls-7" cx="570.7" cy="394.65" r="65.81"/><path class="cls-2" d="M659.65,348.68a5.54,5.54,0,0,0-4-1.76l1-2.74a5.23,5.23,0,0,0-3.06-6.71,5.31,5.31,0,0,0-2.79-.24l-3.61.7.34-2.41a5.21,5.21,0,0,0-7-5.64,5.59,5.59,0,0,1-4.79-.34,5.71,5.71,0,0,1-2.83-3.86l-1.26-6.05-.13-.33c-6.12-10.19-17.87-17.6-32.26-20.32-12.8-2.44-25.93-1.2-38.59,0-5,.47-10.7,1-15.42,3.9-4,2.48-7.42,7.44-6.72,12.45-12.48-3.83-25.86,3.81-32.5,13.44-7.85,11.46-9.14,25.82-9.34,37-.57,26.56,4.91,48.29,16.24,64.59.83,1.18,1,3.65,2.68,4.48l-.34-.55c1.83.92,3.69,2.39,3,4-2,4.55,11.26,14.61,20.59,17.93,17,6.07,39.67,5.56,55.6,3.37l.56-3.76c5.74-.79,9.79-2.28,10.93-4.61,2-1.72,3.72-3.25,5.21-4.67l0,0,.11-.1c7.2-6.9,8.87-10.82,9.62-16.81s-.56-11.81-1.88-17.17c27.68,4.28-10.9-29.48,14.89-36a7.37,7.37,0,0,1,.9-.22c.76-.18,1.51-.36,2.23-.57A39,39,0,0,0,647,371.4c7.21-4.39,9.58-10.21,13.31-16.77A5.06,5.06,0,0,0,659.65,348.68Z"/><path class="cls-2" d="M803.46,681.53c0,2.59,0,6.2-.16,10.68,0,.62,0,1.26,0,1.91-.19,8.22-.39,15.12-.7,22.79,0,.53,0,1-.06,1.58-.41,10.69-1.06,23.14-2.18,42.86-2.08,36.42-5.72,5-9.37,17.78-.17.64-.37,1.39-.54,2.27a41.08,41.08,0,0,1-2.78,9.35c-1.93,1.16-3.93,2.26-5.89,3.37-5.6,3.12-11.29,6.12-17,9-3.22,1.59-6.45,3.16-9.7,4.66-.52.24-1,.48-1.52.7A400.26,400.26,0,0,1,702.17,828c-3.42,1-6.84,2-10.29,3-3.61,1-7.21,2-10.86,2.84a394.39,394.39,0,0,1-82.84,11.21c-3.77.12-7.56.16-11.37.16-1.89,0-3.76,0-5.65,0-.57,0-1.15,0-1.72,0L574.3,845a393.76,393.76,0,0,1-99.48-16l-1.37-.4c-2.13-.65-4.24-1.29-6.35-2q-14.62-4.62-28.82-10.36-10.83-4.37-21.41-9.37a.51.51,0,0,1-.18-.09c-1.48-.68-3-1.39-4.45-2.11l-.6-.31q-8.26-4-16.35-8.45c-4.54-10.41-10.92-12.4-14.88-21.56a38.55,38.55,0,0,1-2.48-8.48s0-.06,0-.1c.41,5.49-1.76-9.75,0-.06,0-.18,0-.37,0-.59-.05-.53-.1-1.18-.19-2-5.07-49.46-4.74-106-6.95-152.64-.14-3-.3-5.9-.45-8.66,0-.91-.11-1.81-.17-2.7.11-.27.23-.55.36-.81a1.47,1.47,0,0,1,.1-.22l.15-.27.1-.15a1.09,1.09,0,0,1,.08-.15c.13-.2.28-.42.44-.63a2.41,2.41,0,0,1,.21-.24,1.63,1.63,0,0,1,.17-.2,1.06,1.06,0,0,1,.17-.2c.06-.05.11-.13.19-.2a.34.34,0,0,1,.12-.12,2.67,2.67,0,0,1,.38-.37,15.33,15.33,0,0,1,1.68-1.33c.21-.13.43-.26.64-.41a29.18,29.18,0,0,1,4.68-2.25c.56-.2,1.12-.4,1.73-.6.22-.06.43-.14.65-.21s.65-.21,1-.28c1.68-.5,3.5-.93,5.46-1.33l.74-.15,1.1-.19,1.53-.27c4.39-.69,9.37-1.21,14.86-1.55l1.55-.08,1.83-.09c.52,0,1.05,0,1.58-.06s1.05-.05,1.6-.06c1.49,0,3-.09,4.59-.12,4.46-.09,9.16-.06,14.09,0,2.29.06,4.62.12,7,.23h.46c2.08.08,4.17.16,6.33.28l4.55.24,4.34.28c1.14.06,2.28.15,3.43.22l2.92.21,1.33.09c.73,0,1.45.1,2.19.17l4.9.4,5,.44,5,.48.5,0,4.62.47c.36,0,.73.06,1.08.11l4.48.48,1.37.15c1.17.12,2.32.23,3.5.37,1.55.18,3.13.34,4.67.55,1.19.13,2.39.26,3.58.41,1.88.22,3.79.46,5.69.71l2.17.28c5.44.68,10.93,1.43,16.51,2.22,8.47,1.19,17.06,2.49,25.72,3.9s17.39,2.88,26.16,4.44l6.66,1.21,3,.58c1.71.31,3.43.63,5.14,1s3.43.65,5.14,1l6.13,1.2c13.43,2.65,26.78,5.49,39.8,8.46l6.41,1.48q6.39,1.47,12.65,3c1.15.26,2.29.54,3.42.83,2.84.7,5.68,1.41,8.47,2.14l.48.13c2.06.5,4.07,1,6.07,1.55q7.13,1.86,14,3.77,4.56,1.26,9,2.55c4.44,1.29,8.8,2.59,13,3.9l3.13,1c3.1,1,6.16,1.94,9.13,2.91,2.36.77,4.66,1.55,6.94,2.33s4.5,1.57,6.69,2.35c1.4.51,2.79,1,4.18,1.54l5.88,2.21,1.74.68c.37.17.72.3,1.08.45.69.28,1.4.54,2.08.82s1.37.55,2,.85,1.35.54,2,.82,1.31.55,2,.85,1.08.45,1.6.69c1.05.46,2.09.92,3.11,1.39l1.51.69,1.15.53c.16.09.33.17.49.24l1.12.55c.86.4,1.7.82,2.53,1.22,1.11.56,2.18,1.12,3.22,1.67s2.07,1.12,3,1.67l.47.27c.22.11.45.25.67.37.75.42,1.47.87,2.2,1.29,1.42.88,2.76,1.73,4,2.59.28.19.54.38.82.56.93.67,1.82,1.32,2.65,2h0c.28.21.55.43.81.64s.46.38.68.59c.77.67,1.48,1.3,2.13,1.95a7.52,7.52,0,0,1,.62.64,1.75,1.75,0,0,1,.24.23c.29.3.56.59.81.89a.64.64,0,0,1,.1.13c.36.41.68.83,1,1.24.15.21.31.42.44.62s.36.52.51.77.25.43.37.64a10.5,10.5,0,0,1,.79,1.66,7.57,7.57,0,0,1,.4,1.22A8.12,8.12,0,0,1,803.46,681.53Z"/><path class="cls-10" d="M803.46,681.53c0,2.59,0,6.2-.16,10.68,0,.62,0,1.26-.06,1.91-.15,6.27-.37,14-.68,22.79,0,.53,0,1-.06,1.58-.41,10.69-1.06,23.14-2.18,42.86-2.08,36.42-5.72,5-9.37,17.78-10.13-6.23-21.23-12.76-33.11-19.47L751.36,756c-23.75-13.25-50.28-27.14-78-40.89l-3.3-1.62c-63.43-31.36-132.67-61.86-188.77-82.21-10.83-3.93-21.16-7.47-30.88-10.59-20.47-6.54-38.17-11.12-51.79-13.1-14.17-2.07-24-1.33-27.93,2.94-.14-3-.3-5.9-.45-8.66l-.18-2.7c.09-.24.21-.48.32-.71l0-.1a1.47,1.47,0,0,1,.1-.22l.15-.27a2.38,2.38,0,0,1,.18-.3c.13-.2.28-.42.44-.63a5.46,5.46,0,0,1,.38-.44,1.06,1.06,0,0,1,.17-.2c.06-.05.11-.13.19-.2a.34.34,0,0,1,.12-.12,2.67,2.67,0,0,1,.38-.37,15.33,15.33,0,0,1,1.68-1.33c.21-.13.43-.26.64-.41a29.18,29.18,0,0,1,4.68-2.25c.56-.2,1.12-.4,1.73-.6.22-.06.43-.14.65-.21s.65-.21,1-.28c1.68-.5,3.5-.93,5.46-1.33.59-.12,1.22-.24,1.84-.34l1.53-.27c4.39-.69,9.37-1.21,14.86-1.55l1.55-.08,1.83-.09c.52,0,1.05,0,1.58-.06s1.05-.05,1.6-.06c1.49,0,3-.09,4.59-.12,4.46-.07,9.16,0,14.09.06,2.29,0,4.62.12,7,.22l.46,0c2.08,0,4.19.16,6.33.26l4.55.24,4.34.28c1.14.06,2.28.15,3.43.22l2.92.21,3.52.26,4.9.4,5,.44,5,.48.5,0,4.62.47q12.9,1.32,26.54,3.06,8.16,1.05,16.52,2.23c8.46,1.2,17.05,2.5,25.71,3.89s17.39,2.88,26.16,4.44l6.66,1.21,8.15,1.54c1.71.32,3.43.65,5.14,1l6.13,1.2c13.43,2.65,26.78,5.49,39.8,8.46l6.41,1.48q6.39,1.47,12.65,3l3.42.84,8.47,2.13h0l.48.12c2,.52,4.07,1,6.08,1.57q7.11,1.86,14,3.75c3,.85,6.06,1.7,9,2.55,4.44,1.3,8.8,2.6,13,3.9l3.13,1,9.13,2.91c2.36.77,4.66,1.55,6.94,2.33s4.5,1.57,6.69,2.35l4.18,1.52c2,.74,4,1.48,5.88,2.23l1.74.68c1.08.42,2.13.85,3.16,1.27.7.27,1.37.55,2,.85s1.35.54,2,.82,1.31.55,2,.85,1.08.45,1.6.69c1.05.46,2.1.92,3.11,1.39l1.51.69,1.15.53.49.24c1.26.59,2.47,1.18,3.65,1.77s2.18,1.12,3.22,1.67c1.22.65,2.39,1.29,3.51,1.94.22.11.45.25.67.37.75.42,1.47.87,2.2,1.29,1.42.88,2.76,1.73,4,2.59s2.39,1.7,3.47,2.54h0c.52.42,1,.83,1.49,1.23.77.67,1.48,1.3,2.13,1.95a6.25,6.25,0,0,1,.62.64,1.75,1.75,0,0,1,.24.23c.31.34.62.68.91,1s.68.83,1,1.24l.45.62c.17.25.35.52.5.77s.25.43.37.64a10.5,10.5,0,0,1,.79,1.66,7.57,7.57,0,0,1,.4,1.22A8.12,8.12,0,0,1,803.46,681.53Z"/></g></g></svg>