<svg xmlns="http://www.w3.org/2000/svg" viewBox="0 0 1040.28 849.76"><defs><style>.cls-1{fill:#e6e6e6;}.cls-2{fill:#06061b;}.cls-3{fill:#fff;}.cls-4{fill:#ccc;}.cls-5{fill:#2f2e41;}.cls-6{fill:#f0f;}.cls-7{fill:#6c63ff;}.cls-8{fill:#3f3d56;}.cls-9{fill:#e2e2e2;}</style></defs><g id="Layer_2" data-name="Layer 2"><g id="Layer_1-2" data-name="Layer 1"><rect class="cls-1" x="440.31" y="67.41" width="57.32" height="3.28"/><rect class="cls-1" x="415.41" y="83.53" width="6.55" height="6.55"/><rect class="cls-2" x="374.96" width="288.05" height="12.24"/><circle class="cls-3" cx="384.05" cy="6.26" r="2.46"/><circle class="cls-3" cx="392.66" cy="6.26" r="2.46"/><circle class="cls-3" cx="401.27" cy="6.26" r="2.46"/><path class="cls-4" d="M521.23,725.59c-168.25,0-304.66-136.41-304.66-304.67S353,116.26,521.24,116.26,825.9,252.67,825.9,420.93A304.68,304.68,0,0,1,521.23,725.59Zm0-607c-166.69,0-302.31,135.62-302.31,302.31S354.54,723.24,521.23,723.24,823.55,587.62,823.55,420.92,687.93,118.61,521.23,118.61Z"/><rect class="cls-5" x="405.92" y="464.35" width="228.44" height="306.93"/><rect class="cls-6" x="366.67" y="454.97" width="306.93" height="121.83"/><rect class="cls-6" x="366.67" y="590.87" width="306.93" height="121.83"/><rect class="cls-6" x="366.67" y="726.76" width="306.93" height="121.83"/><rect class="cls-2" x="366.67" y="506.63" width="306.93" height="18.74"/><rect class="cls-2" x="366.67" y="642.52" width="306.93" height="18.74"/><rect class="cls-2" x="366.67" y="778.42" width="306.93" height="18.74"/><circle class="cls-7" cx="613.86" cy="472.55" r="7.03"/><circle class="cls-7" cx="638.46" cy="472.55" r="7.03"/><circle class="cls-7" cx="663.06" cy="472.55" r="7.03"/><circle class="cls-7" cx="613.86" cy="606.09" r="7.03"/><circle class="cls-7" cx="638.46" cy="606.09" r="7.03"/><circle class="cls-7" cx="663.06" cy="606.09" r="7.03"/><circle class="cls-7" cx="613.86" cy="739.64" r="7.03"/><circle class="cls-7" cx="638.46" cy="739.64" r="7.03"/><circle class="cls-7" cx="663.06" cy="739.64" r="7.03"/><rect class="cls-8" y="847.42" width="1040.28" height="2.34"/><path class="cls-1" d="M283.36,334.61V552.5a17.21,17.21,0,0,1-17.19,17.19H181.5a17.2,17.2,0,0,1-17.2-17.19V334.61a17.2,17.2,0,0,1,17.2-17.19h10.27a8.17,8.17,0,0,0,4.49,10.65,8.08,8.08,0,0,0,3.07.61H247.6a8.18,8.18,0,0,0,8.17-8.19,8.31,8.31,0,0,0-.6-3.07h11A17.21,17.21,0,0,1,283.36,334.61Z"/><rect class="cls-3" x="169.94" y="359.03" width="107.78" height="149.95"/><rect class="cls-1" x="200.54" y="462.14" width="43.02" height="2.46"/><rect class="cls-7" x="200.5" y="471.17" width="66.56" height="2.46"/><rect class="cls-1" x="200.5" y="479.67" width="52.23" height="2.46"/><rect class="cls-1" x="200.5" y="488.17" width="30.73" height="2.46"/><rect class="cls-1" x="200.5" y="496.68" width="46.09" height="2.46"/><rect class="cls-1" x="181.03" y="461.44" width="4.92" height="4.92"/><rect class="cls-7" x="181.03" y="469.94" width="4.92" height="4.92"/><rect class="cls-1" x="181.03" y="478.44" width="4.92" height="4.92"/><rect class="cls-1" x="181.03" y="486.95" width="4.92" height="4.92"/><rect class="cls-1" x="181.03" y="495.45" width="4.92" height="4.92"/><rect class="cls-1" x="202.37" y="377.78" width="43.34" height="43.34"/><rect class="cls-1" x="376.18" y="17.23" width="288.05" height="184.48"/><rect class="cls-3" x="397.89" y="68.84" width="238.82" height="90.25"/><rect class="cls-7" x="441.34" y="96.5" width="88.69" height="3.28"/><rect class="cls-1" x="441.34" y="107.83" width="69.6" height="3.28"/><rect class="cls-1" x="441.34" y="119.16" width="40.94" height="3.28"/><rect class="cls-1" x="441.34" y="130.49" width="61.41" height="3.28"/><rect class="cls-7" x="415.41" y="94.86" width="6.55" height="6.55"/><rect class="cls-1" x="415.41" y="106.19" width="6.55" height="6.55"/><rect class="cls-1" x="415.41" y="117.52" width="6.55" height="6.55"/><rect class="cls-1" x="415.41" y="128.85" width="6.55" height="6.55"/><rect class="cls-1" x="566.35" y="80.15" width="58.64" height="58.64"/><rect class="cls-1" x="786.82" y="362.43" width="70.29" height="36.32"/><rect class="cls-1" x="786.82" y="492.46" width="70.29" height="36.32"/><circle class="cls-1" cx="821.97" cy="445.6" r="58.57"/><circle class="cls-3" cx="821.97" cy="445.6" r="45.69"/><rect class="cls-9" x="807.01" y="433.08" width="35.43" height="2.02"/><rect class="cls-7" x="806.97" y="440.52" width="54.83" height="2.02"/><rect class="cls-9" x="806.97" y="447.52" width="43.03" height="2.02"/><rect class="cls-9" x="806.97" y="454.53" width="25.31" height="2.02"/><rect class="cls-9" x="806.97" y="461.53" width="37.96" height="2.02"/><rect class="cls-9" x="790.94" y="432.5" width="4.05" height="4.05"/><rect class="cls-7" x="790.94" y="439.51" width="4.05" height="4.05"/><rect class="cls-9" x="790.94" y="446.51" width="4.05" height="4.05"/><rect class="cls-9" x="790.94" y="453.51" width="4.05" height="4.05"/><rect class="cls-9" x="790.94" y="460.52" width="4.05" height="4.05"/></g></g></svg>