<svg xmlns="http://www.w3.org/2000/svg" viewBox="0 0 1059.69 775.96"><defs><style>.cls-1{fill:#ffb6b6;}.cls-2{fill:#2f2e41;}.cls-3{fill:#06061b;}.cls-4{fill:#f0f;}.cls-5{fill:#3f3d56;}.cls-6{fill:#fff;}.cls-7{fill:#f1f1f1;}.cls-8{fill:#6c63ff;}.cls-9{fill:#e5e5e5;}.cls-10{fill:#e4e4e4;}.cls-11{fill:#cacaca;}</style></defs><g id="Layer_2" data-name="Layer 2"><g id="Layer_1-2" data-name="Layer 1"><polygon class="cls-1" points="1032.07 753.09 1021.57 756.45 1003.62 717.54 1019.12 712.59 1032.07 753.09"/><path class="cls-2" d="M1038,762.41l-33.86,10.83-.14-.42a13.84,13.84,0,0,1,9-17.4h0l4.69-6.67,13,1,3-.94Z"/><polygon class="cls-1" points="932.51 763.57 921.48 763.57 916.24 721.04 932.51 721.04 932.51 763.57"/><path class="cls-2" d="M935.32,774.25H899.77v-.45A13.84,13.84,0,0,1,913.61,760h0L920.1,755,932.22,760h3.1Z"/><path class="cls-1" d="M879.85,324.09a9.09,9.09,0,0,0,2.72,13.6l-5.29,31.7,15.27-6.78,2.68-29.06a9.09,9.09,0,0,0-15.38-9.46Z"/><path class="cls-3" d="M1019,587.06s2.57-33.49-6.54-39.71S928.22,538,928.22,538l-4.67,6.13s-.42,2.87-7.5,26.22l-2.88,130.31c-.28,12.7-2.5,28.66,2.81,31.93l2.58,12.89h14.18l7.84-21.68a28.56,28.56,0,0,0,4.08-18.26l4.28-19.14a2.32,2.32,0,0,1-.61-1.09,11.2,11.2,0,0,1,1.79-8.17,13.66,13.66,0,0,1,1.25-1.59L967,605.42l21.15,82,13,29.14c-1.28,3.06-.43,5.82,1.91,8.39-.87,2.39,2.89,4.07,4.5,7.16l5,9.47,14.19-7.73,1.29-7.74c.86-2.29-1.45-3.82-3.16-8.58,3.18-3.37,3-6.66,0-9.87l-5.37-23.12-.06-10.6-.07-11.33Z"/><circle class="cls-1" cx="959.71" cy="363.32" r="24.64"/><path class="cls-3" d="M984.5,367.18l-.41-.82c-.63-1.25-5.84-11.72-6.49-14.41l-6.56.77H954l2.37-3.56-6.27.81a14.48,14.48,0,0,0-6.4,2.41,9.85,9.85,0,0,0-2.9,3c-2.24,3.84-5.66,10.12-5.7,10.18l-.32.6-2.85-4.78c0-.19-3.56-18.58,8.24-24.82a19,19,0,0,1,18.05-10.3,7.81,7.81,0,0,1,5.28-2.63c2.8-.14,5.71,1.33,8.62,4.39,3.88,4.07,9.19,9.65,12.4,15.83l.89,1.27a10,10,0,0,1,1.77,6.18,20.59,20.59,0,0,1-.71,10.53Z"/><path class="cls-4" d="M1018.91,410.21l-26.79-7.5L978.49,392.6l-26.79,4.27-.12.15c-4.68,6.09-11.91,12.11-19.6,12.35a27.61,27.61,0,0,0-5.86.84l-2.57,47v42a2.45,2.45,0,0,1,1.62,1.79A33.94,33.94,0,0,1,925,514a21.4,21.4,0,0,1-1.41,4.32,11.36,11.36,0,0,1,0,9.92c-2.29,2.18-2,4.56,0,7.07v8.82c43.48,36.28,88.81,5.22,88.81,5.22l-1.45-69Z"/><path class="cls-4" d="M932.13,416.67l-6-6.46L893,406.46l3.11-50.84-18-12.88-8.18,44.12c-2.81,2.43-3.33,4.83-1.33,7.18-2.25,4.51-2.83,8.17-2.06,11.15l-1.69,9.13,61.25,42.91Z"/><path class="cls-1" d="M1014,582.93a9,9,0,0,1,2.74-12.49,9.47,9.47,0,0,1,1.41-.74l-1.88-32.08,14.46,8.36-.43,29.18a9.09,9.09,0,0,1-16.3,7.77Z"/><path class="cls-4" d="M1008.84,418.24l10.07-8s10.28,5.68,13.42,15.85,8.61,68.1,8.61,68.1l.84,21.57c1.08,3.42.8,6.47-1.78,8.91,3.88,4,3.3,7.35-2,10l-5.49,33.91L1015.27,565l2.18-66.87L1003.36,455Z"/><path class="cls-5" d="M320.21,152.61h-3.53V56A56,56,0,0,0,260.74,0H56A56,56,0,0,0,0,56V586.24a56,56,0,0,0,56,56H260.74a56,56,0,0,0,55.94-56V221.41h3.53Z"/><path class="cls-6" d="M263,14.56H236.26A19.85,19.85,0,0,1,217.88,41.9H100.56A19.84,19.84,0,0,1,82.18,14.56h-25A41.76,41.76,0,0,0,15.44,56.33V585.85a41.77,41.77,0,0,0,41.78,41.78H263a41.77,41.77,0,0,0,41.78-41.78h0V56.33A41.77,41.77,0,0,0,263,14.56Z"/><path class="cls-7" d="M261,212.88a100.41,100.41,0,0,1-6.34,35.23,97.49,97.49,0,0,1-7,14.92,100.93,100.93,0,0,1-175.15,0q-1.35-2.32-2.55-4.72a100.92,100.92,0,1,1,191-45.43Z"/><circle class="cls-4" cx="165.35" cy="210.62" r="19.29"/><path class="cls-4" d="M70,258.31c8.5-9.18,19.86-23.77,30.52-13.23,5.35,5,13.72,17.29,21.73,9.23l62.57-62.57a12.42,12.42,0,0,1,17.57.12c.07.06.13.13.2.2l52.11,56.05a97.49,97.49,0,0,1-7,14.92H72.53Z"/><path id="a69ed34c-3aa3-4521-988a-f33ab8935c86-469" class="cls-8" d="M207.45,417.8a2.61,2.61,0,0,0,0,5.21h27.36a2.61,2.61,0,1,0,0-5.21Z"/><path id="a82b6965-e745-4a79-ac21-2b08adebfabf-470" class="cls-9" d="M84.2,379.51a2.61,2.61,0,0,0,0,5.21H236a2.61,2.61,0,0,0,0-5.21Z"/><path id="a01cc774-2c01-4baa-ba73-f6c316fae153-471" class="cls-9" d="M84.2,398.65a2.61,2.61,0,0,0,0,5.22H236a2.61,2.61,0,0,0,0-5.22H84.2Z"/><path id="f6ecfbd0-b722-47f2-8687-80b685eaa1e2-472" class="cls-8" d="M207.45,540.65a2.61,2.61,0,0,0,0,5.21h27.36a2.61,2.61,0,1,0,0-5.21Z"/><path id="beaff243-1f9b-420c-bc28-f0641d12fad8-473" class="cls-9" d="M84.2,502.36a2.61,2.61,0,0,0,0,5.21H236a2.61,2.61,0,0,0,0-5.21H84.2Z"/><path id="a8605179-8b03-4e4a-93a2-1a820418a8d0-474" class="cls-9" d="M84.2,521.5a2.61,2.61,0,0,0,0,5.21H236a2.61,2.61,0,0,0,0-5.21Z"/><path class="cls-10" d="M865.38,293.87l-20.83-9.42a17,17,0,0,1-23.95,14.83L729.18,258a17,17,0,0,1-4.68-27.79L705,221.37a35.72,35.72,0,0,0-47.27,17.83L471.2,651.8A35.72,35.72,0,0,0,489,699.07h0l160.34,72.5a35.72,35.72,0,0,0,47.27-17.83h0l186.57-412.6a35.72,35.72,0,0,0-17.84-47.27Z"/><path class="cls-6" d="M679.81,490.32a87.84,87.84,0,0,1-51.1-71.45c-.16-1.52-.26-3.08-.33-4.64a86.67,86.67,0,0,1,7.72-39.79,87.58,87.58,0,1,1,142,97.77,85.34,85.34,0,0,1-10.88,9.3A87.85,87.85,0,0,1,679.81,490.32Zm71.11-157.25A85.1,85.1,0,0,0,638.45,375.5,84.07,84.07,0,0,0,631,414.12c.06,1.51.17,3,.31,4.5a85,85,0,0,0,134.45,60.8,83.21,83.21,0,0,0,10.54-9,85,85,0,0,0-25.34-137.33Z"/><rect class="cls-6" x="716.59" y="323.46" width="2.58" height="171.31" transform="translate(-98.84 283.87) rotate(-20.96)"/><rect class="cls-6" x="628.82" y="409.11" width="171.31" height="2.58" transform="translate(-99.52 282.67) rotate(-20.96)"/><path class="cls-6" d="M714.66,615.32,563.33,546.89a4.65,4.65,0,0,1-2.32-6.15l14.23-31.48a4.65,4.65,0,0,1,6.15-2.32l151.34,68.43a4.64,4.64,0,0,1,2.31,6.14L720.81,613A4.66,4.66,0,0,1,714.66,615.32Zm-134.33-106a2.08,2.08,0,0,0-2.74,1L563.36,541.8a2.07,2.07,0,0,0,1,2.74L715.72,613a2.08,2.08,0,0,0,2.74-1l14.23-31.48a2.06,2.06,0,0,0-1-2.73Z"/><path class="cls-6" d="M678,696.39,526.67,628a4.65,4.65,0,0,1-2.32-6.14l14.24-31.49a4.65,4.65,0,0,1,6.14-2.32l151.34,68.43a4.65,4.65,0,0,1,2.31,6.15l-14.23,31.48A4.65,4.65,0,0,1,678,696.39Zm-134.33-106a2.07,2.07,0,0,0-2.73,1L526.7,622.88a2.06,2.06,0,0,0,1,2.73L679.06,694a2.07,2.07,0,0,0,2.74-1L696,661.53a2.07,2.07,0,0,0-1-2.74Z"/><path class="cls-2" d="M619.51,491.25a100.56,100.56,0,0,0-19.62-42.47A133,133,0,0,0,564,417.19a159.16,159.16,0,0,0-45.91-18.83c-20.13-4.83-40.92-6.41-61.58-6.21S415,394.3,394.3,396.47l-7.88.84c-2.45.26-2.48,4.13,0,3.87,20.37-2.18,40.78-4.32,61.27-5,20.32-.66,40.8.14,60.8,4a162.06,162.06,0,0,1,47.63,16.84,134.67,134.67,0,0,1,36.78,29.25,99.47,99.47,0,0,1,21.62,40.27q.72,2.82,1.26,5.69C616.25,494.72,620,493.69,619.51,491.25Z"/><path class="cls-2" d="M400.23,369.62l-30.9,32.87a2,2,0,0,0,0,2.76,1.6,1.6,0,0,0,.35.28l27.88,13.33c2.24,1.06,4.2-2.27,1.95-3.35l-27.87-13.32.39,3L403,372.36c1.7-1.81-1-4.55-2.74-2.74Z"/><path class="cls-11" d="M1058.15,776H468.46a1.54,1.54,0,1,1,0-3.07h589.7a1.54,1.54,0,1,1,0,3.07Z"/></g></g></svg>