<svg xmlns="http://www.w3.org/2000/svg" viewBox="0 0 1416.99 917.65"><defs><style>.cls-1{fill:#ffb8b8;}.cls-2{fill:#2f2e41;}.cls-3{fill:#06061b;}.cls-4{fill:#f0f;}.cls-5{fill:#ccc;}.cls-6{fill:#f2f2f2;}.cls-7{fill:#fff;}</style></defs><g id="Layer_2" data-name="Layer 2"><g id="Layer_1-2" data-name="Layer 1"><circle class="cls-1" cx="230.2" cy="389.75" r="37.56"/><polygon class="cls-1" points="103.29 839.83 112.8 855.99 179.64 827 165.6 803.15 103.29 839.83"/><path class="cls-2" d="M106.14,832.61l18.72,31.81h0a23.53,23.53,0,0,1-8.35,32.21h0l-.66.39L85.2,844.93Z"/><polygon class="cls-1" points="213.48 898.04 232.22 898.04 241.14 825.72 213.47 825.73 213.48 898.04"/><path class="cls-2" d="M208.69,891.92h36.93a23.54,23.54,0,0,1,23.53,23.53h0v.77H208.7Z"/><path class="cls-3" d="M138.1,854.23a6.88,6.88,0,0,1-5.54-2.81l-18.08-24.55a6.9,6.9,0,0,1,1.46-9.63l.26-.18,80.46-53.74L148.11,635.68l103.82,8.56,3.49,109.7a55.12,55.12,0,0,1-27.59,49.58L141.54,853.3A6.8,6.8,0,0,1,138.1,854.23Z"/><path class="cls-3" d="M214,883.36a6.88,6.88,0,0,1-6.86-6.64l-3.81-106.86,47.12-2.49L246.73,875a6.85,6.85,0,0,1-6.42,6.62l-25.8,1.71Z"/><path class="cls-4" d="M263.94,665.46c-12,0-53.85-13.48-68.39-18.28-2.17,1.74-14.11,10.67-28.06,9-8.6-1-16.17-5.87-22.51-14.47-14-19,3.29-100.39,20.25-165.35a52.39,52.39,0,0,1,62-38h0a52.88,52.88,0,0,1,39.9,38.81c3.19,13,.44,28.28-1.56,39.44-1,5.25-1.69,9.39-1.44,11.43,1,7.87,6.45,131.34,2.94,136.62C266.67,665.21,265.58,665.46,263.94,665.46Z"/><path class="cls-1" d="M220.09,665.68a16.44,16.44,0,0,0,1.44-25.15l.74-149.62L187,496.78,197.39,642a16.51,16.51,0,0,0,22.7,23.67Z"/><path class="cls-4" d="M228.24,587h-38a6.91,6.91,0,0,1-6.89-6.82l-.93-102.9a26.92,26.92,0,0,1,53.84-.49v.55L235.12,580.2A6.9,6.9,0,0,1,228.24,587Z"/><path class="cls-3" d="M220.63,427.15c-17.19,0-33.42-13.56-36.4-30.49a44,44,0,0,1,1.41-19.9A53.44,53.44,0,0,1,252,340.62a51.66,51.66,0,0,1,6.91,2.57c4.6,2.08,9.13,5.07,11.24,9.66s.79,11-3.82,13.06c-3,1.35-6.79.69-9.46,2.63-3.84,2.78-2.85,8.7-1.14,13.12s3.65,9.77.78,13.54c-2.67,3.51-8,3.4-12.24,2.08s-8.37-3.54-12.77-3.09c-6.4.66-11,7-11.86,13.42s1.15,12.77,3.13,18.89Z"/><path class="cls-5" d="M396.06,917.65H1.53a1.53,1.53,0,1,1,0-3.06H396.06a1.53,1.53,0,1,1,0,3.06Z"/><path class="cls-6" d="M1391.76,664.51h-980a25.25,25.25,0,0,1-25.23-25.23V35A18.52,18.52,0,0,1,405,16.52h993.14A18.84,18.84,0,0,1,1417,35.33V639.28A25.26,25.26,0,0,1,1391.76,664.51Z"/><path class="cls-7" d="M1360.07,632.65H446.77c-13.39,0-24.28-10.2-24.28-22.73V83.71c0-9.3,8.07-16.86,18-16.86h925.58c10.09,0,18.29,7.69,18.29,17.14V609.92C1384.35,622.45,1373.46,632.65,1360.07,632.65Z"/><path class="cls-3" d="M1416.64,38.15H386.2V25.31A25.34,25.34,0,0,1,411.53,0h979.78a25.34,25.34,0,0,1,25.33,25.31Z"/><circle class="cls-7" cx="432.22" cy="19.12" r="6.55"/><circle class="cls-7" cx="457.09" cy="19.12" r="6.55"/><circle class="cls-7" cx="481.95" cy="19.12" r="6.55"/><path class="cls-5" d="M881.75,181.91H703.13a10,10,0,0,1,0-20.09H881.75a10,10,0,1,1,0,20.09Z"/><path class="cls-5" d="M1103.71,181.91H925.09a10,10,0,0,1,0-20.09h178.62a10,10,0,1,1,0,20.09Z"/><path class="cls-5" d="M1103.71,220H793a10,10,0,0,1,0-20.08h310.74a10,10,0,0,1,0,20.08Z"/><path class="cls-5" d="M881.75,143.33H703.13a10,10,0,0,1,0-20.09H881.75a10,10,0,0,1,0,20.09Z"/><path class="cls-5" d="M980.05,143.86H929.31a10,10,0,0,1,0-20.09h50.74a10,10,0,0,1,0,20.09Z"/><path class="cls-5" d="M753.86,220H703.13a10,10,0,0,1,0-20.08h50.73a10,10,0,1,1,0,20.08Z"/><path class="cls-5" d="M881.75,538.21H703.13a10,10,0,1,1,0-20.08H881.75a10,10,0,0,1,0,20.08Z"/><path class="cls-5" d="M1103.71,538.21H925.09a10,10,0,0,1,0-20.08h178.62a10,10,0,0,1,0,20.08Z"/><path class="cls-5" d="M1103.71,576.26H793a10,10,0,0,1,0-20.08h310.74a10,10,0,1,1,0,20.08Z"/><path class="cls-5" d="M881.75,499.63H703.13a10,10,0,1,1,0-20.08H881.75a10,10,0,0,1,0,20.08Z"/><path class="cls-5" d="M980.05,500.16H929.31a10,10,0,1,1,0-20.08h50.74a10,10,0,1,1,0,20.08Z"/><path class="cls-5" d="M753.86,576.26H703.13a10,10,0,1,1,0-20.08h50.73a10,10,0,1,1,0,20.08Z"/><path class="cls-4" d="M835.1,430.41A14.38,14.38,0,0,1,825,426.27L757.83,360a14,14,0,0,1-.13-19.79l.13-.12,66.87-66a14.85,14.85,0,0,1,20.87.06h0a14.84,14.84,0,0,1,0,20.93l-49.7,49.7a8.28,8.28,0,0,0,0,11.69l49.43,49.43a14.4,14.4,0,0,1-10.2,24.59Z"/><path class="cls-4" d="M942.09,430.41a14.4,14.4,0,0,1-10.19-24.59l49.42-49.43a8.26,8.26,0,0,0,0-11.69L931.63,295a14.79,14.79,0,0,1,0-20.92h0a14.83,14.83,0,0,1,20.86-.06l66.88,66a14,14,0,0,1,.12,19.79l-.12.12-67.15,66.31A14.38,14.38,0,0,1,942.09,430.41Z"/></g></g></svg>