<svg xmlns="http://www.w3.org/2000/svg" viewBox="0 0 1258.3 898.72"><defs><style>.cls-1{fill:#2f2e41;}.cls-2{fill:#ffb8b8;}.cls-3{fill:#06061b;}.cls-4{fill:#e6e6e6;}.cls-5{fill:#f0f;}</style></defs><g id="Layer_2" data-name="Layer 2"><g id="Layer_1-2" data-name="Layer 1"><path class="cls-1" d="M1207,845.69l-63.72-18.27h0l7.06-24.62h0l39.1,11.21A25.61,25.61,0,0,1,1207,845.69Z"/><polygon class="cls-2" points="1120.51 879.14 1099.42 879.14 1089.38 797.78 1120.51 797.79 1120.51 879.14"/><path class="cls-1" d="M1084.35,873.11H1125v25.61h-66.29a25.62,25.62,0,0,1,25.61-25.61Z"/><path class="cls-2" d="M1041.73,568.65a17.28,17.28,0,0,0-10.94-24.16L1027,483.13l-25.52,19.22,7.54,55.32a17.39,17.39,0,0,0,32.75,11Z"/><polygon class="cls-2" points="1153 809.84 1173.27 815.65 1205.34 740.22 1175.42 731.64 1153 809.84"/><path class="cls-3" d="M1062.18,547.45s-12,48.17,8.6,146.24l15.48,168.59,39.57,1.72-5.16-182.36L1134.43,606l34.41,104.94-12,74L1186,798.63l32.69-101.5s-3.44-141.07-17.2-158.28Z"/><circle class="cls-2" cx="1112.14" cy="230.8" r="42.25"/><path class="cls-4" d="M1089.7,295s-2.58,5.68,28.39,2.17,37.85-13.76,37.85-13.76l54.19,237.72-3.44,21-148,8.76V521.1l25.8-157.77Z"/><path class="cls-5" d="M1102.37,544.89l-46.9-.89-.15-.65A246.36,246.36,0,0,1,1057,444.9c9.47-41.94-12-98.83-21.75-121.34a12.07,12.07,0,0,1,4.87-15.07l33.2-19.92a16.88,16.88,0,0,1,25.08,10.32l5.81,22.77c26.73,28.75,24.86,87.71,18.56,132.15a625,625,0,0,1-20.24,90.47Z"/><path class="cls-5" d="M1049.28,304l-4.06,2.78a50.94,50.94,0,0,0-19.61,25.77,123.52,123.52,0,0,0-4.72,18.76C1017.45,372,1002,459.72,1002,459.72l-6.89,86,37.85-8.6,17.21-99.78,17.2-61.93Z"/><path class="cls-5" d="M1183.87,545.3l-.35-1c-2.47-6.82-59.88-167.46-32.76-224.1l-2.66-26.56a17.27,17.27,0,0,1,22.4-18.18L1212,288.62a8.31,8.31,0,0,1,5.84,8.07c-.17,15.27-1,54.19-5.13,85.72-5.08,39,11.87,136.39,12,137.37l.1.58Z"/><path class="cls-2" d="M1165.59,502.59A17.28,17.28,0,0,1,1186.25,486l31.07-53,14.13,28.65-31.68,46a17.39,17.39,0,0,1-34.18-5Z"/><path class="cls-5" d="M1205.83,288.54l2.22.51a17,17,0,0,1,12.15,10.69l38.1,103.2L1213.57,501l-16.34-40.42,20.64-44.73-37-47.31Z"/><path class="cls-3" d="M1155,236.65a104.94,104.94,0,0,0,5.43-19.37,34.84,34.84,0,0,0-2.26-19.71,42.82,42.82,0,0,0-11.65-14,107.45,107.45,0,0,0-10.42-7.84c-10.23-6.78-12.45-.62-24.71-2s-26-4.92-35.83,2.4a40.11,40.11,0,0,0-14.47,42.41c2.74,9.33.56,12.4,9,17.44a33,33,0,0,1,8.92-22.59,34.39,34.39,0,0,1,22.26-10.53c6.53-.47,13,.92,19.4,2.3,6.2,1.34,12.56,2.75,17.81,6.24,8.7,5.78,12.78,16.11,16.37,25.8"/><rect class="cls-4" y="400.85" width="750.08" height="3.44"/><rect class="cls-4" y="266.66" width="750.08" height="3.44"/><rect class="cls-4" y="132.47" width="750.08" height="3.44"/><rect class="cls-4" x="598.34" width="3.44" height="536.75"/><rect class="cls-4" x="448.33" width="3.44" height="536.75"/><rect class="cls-4" x="298.31" width="3.44" height="536.75"/><rect class="cls-4" x="148.3" width="3.44" height="536.75"/><rect class="cls-5" x="149.67" y="134.19" width="301.06" height="134.19"/><polygon class="cls-5" points="149.67 258.06 149.67 402.57 306.23 263.22 149.67 258.06"/><path class="cls-5" d="M450.74,263.22v5.16l-2,1.74-3.95,3.5C367.87,276,305.71,331.07,302.9,399.42l-3.52,3.13,0,0V258.06Z"/><path class="cls-4" d="M449.88,270.1c-.37,0-.74,0-1.11,0-81.85.51-148.38,59.55-149.39,132.43,0,.58,0,1.15,0,1.74,0,74,67.53,134.19,150.54,134.19s150.53-60.2,150.53-134.19S532.88,270.1,449.88,270.1Zm0,264.93c-81.1,0-147.1-58.64-147.1-130.74,0-1.64,0-3.26.12-4.87,2.81-68.35,65-123.47,141.92-125.8,1.67-.06,3.35-.08,5.06-.08C531,273.54,597,332.19,597,404.29S531,535,449.88,535Z"/><path class="cls-4" d="M367.3,402.59l-8.6,0c0-.77,1.38-76.53,89.37-81.78l.51,8.59C368.78,334.12,367.32,399.8,367.3,402.59Z"/><path class="cls-4" d="M536.72,400.85a73.16,73.16,0,0,0-24.05-51.8,91.94,91.94,0,0,0-62.62-24h-.17c-47.26,0-85.83,33.84-86.85,75.8,0,.56,0,1.15,0,1.72,0,21.95,10.27,41.78,26.75,55.89a92.3,92.3,0,0,0,60.13,21.63h.17c47.82-.09,86.7-34.82,86.7-77.52C536.75,402,536.75,401.41,536.72,400.85Z"/><path class="cls-5" d="M512.67,349.05l-2.58,2.28L392.33,456.17l-2.58,2.29C373.27,444.35,363,424.52,363,402.57c0-.57,0-1.16,0-1.72,1-42,39.59-75.8,86.85-75.8h.17A91.94,91.94,0,0,1,512.67,349.05Z"/></g></g></svg>