<svg xmlns="http://www.w3.org/2000/svg" viewBox="0 0 462.18 173.93"><defs><style>.cls-1{fill:#f0f;}</style></defs><g id="Layer_2" data-name="Layer 2"><g id="Layer_1-2" data-name="Layer 1"><path class="cls-1" d="M108.11,115.86v58.07H63.29V115.84a53.5,53.5,0,0,0,44.82,0Z"/><path class="cls-1" d="M63.29,58.08V0h44.82V58.1a53.4,53.4,0,0,0-44.82,0Z"/><path class="cls-1" d="M58.08,109H0V64.17H58.1a53.42,53.42,0,0,0,0,44.83Z"/><path class="cls-1" d="M183,130.8a45.92,45.92,0,0,1-16.51-2.91A38.31,38.31,0,0,1,144.59,107a39.63,39.63,0,0,1-3.13-15.91,39.63,39.63,0,0,1,3.13-15.91,38.11,38.11,0,0,1,8.77-12.62,39.62,39.62,0,0,1,13.23-8.28,45.77,45.77,0,0,1,16.56-2.91,45.25,45.25,0,0,1,18,3.46A35.06,35.06,0,0,1,214.75,65L203.34,75.5a26.73,26.73,0,0,0-8.77-6.75A24.82,24.82,0,0,0,184,66.5a26.94,26.94,0,0,0-9.87,1.76,22.26,22.26,0,0,0-7.79,5,23,23,0,0,0-5.11,7.79,28.45,28.45,0,0,0,0,20,23.08,23.08,0,0,0,5.11,7.79,22.23,22.23,0,0,0,7.79,5,26.94,26.94,0,0,0,9.87,1.76,24.67,24.67,0,0,0,10.54-2.25,26.19,26.19,0,0,0,8.77-6.86l11.41,10.54a35.58,35.58,0,0,1-13.55,10.2A45,45,0,0,1,183,130.8Z"/><path class="cls-1" d="M261.39,69.58A27.56,27.56,0,0,1,274,72.37a20.33,20.33,0,0,1,8.72,8.56q3.18,5.76,3.18,14.76v33.8H268.74V98.32q0-7.12-3.13-10.53t-8.83-3.4a15.5,15.5,0,0,0-7.3,1.7,11.79,11.79,0,0,0-5,5.21,19.68,19.68,0,0,0-1.81,9v29.19H225.51V48.07h17.11V86.8l-3.84-4.93a21.86,21.86,0,0,1,9.11-9.11A28.1,28.1,0,0,1,261.39,69.58Z"/><path class="cls-1" d="M309.88,62.22a10.85,10.85,0,0,1-7.68-2.74,9.29,9.29,0,0,1,0-13.6,10.85,10.85,0,0,1,7.68-2.75,11.25,11.25,0,0,1,7.68,2.58,8.38,8.38,0,0,1,3,6.64,9.45,9.45,0,0,1-2.9,7.08A10.72,10.72,0,0,1,309.88,62.22Zm-8.56,67.27v-59h17.12v59Z"/><path class="cls-1" d="M334.35,129.49v-59H350.7V87.13l-2.31-4.83a19,19,0,0,1,8.45-9.49A28.83,28.83,0,0,1,371,69.58v15.8c-.74-.08-1.39-.13-2-.17s-1.21,0-1.86,0q-7,0-11.36,4t-4.33,12.46v27.87Z"/><path class="cls-1" d="M395.58,130.36A27.17,27.17,0,0,1,383.73,128a18.08,18.08,0,0,1-7.58-6.41,17.42,17.42,0,0,1,0-18.33,16.93,16.93,0,0,1,8.18-6.2q5.58-2.25,14.59-2.25h15.69v10H400.73q-6,0-8.28,2a6.3,6.3,0,0,0-2.25,4.94,6.16,6.16,0,0,0,2.58,5.21,11.62,11.62,0,0,0,7.08,1.92,14.65,14.65,0,0,0,7.68-2,11.63,11.63,0,0,0,4.93-6l2.64,7.9a15.29,15.29,0,0,1-6.81,8.67Q403.37,130.37,395.58,130.36Zm18-.87V118l-1.1-2.52V94.81c0-3.65-1.11-6.51-3.34-8.56s-5.65-3.07-10.26-3.07a30,30,0,0,0-9.27,1.48,24.6,24.6,0,0,0-7.74,4l-6.14-12a37.07,37.07,0,0,1,11.63-5.27,52.13,52.13,0,0,1,13.82-1.86q13.5,0,21,6.36t7.46,19.86v33.69Z"/><path class="cls-1" d="M445.06,129.49V48.07h17.12v81.42Z"/></g></g></svg>