<svg xmlns="http://www.w3.org/2000/svg" viewBox="0 0 445.88 167.8"><g id="Layer_2" data-name="Layer 2"><g id="Layer_1-2" data-name="Layer 1"><path d="M104.3,111.77v56H61.06V111.75a51.58,51.58,0,0,0,43.24,0Z"/><path d="M61.06,56V0H104.3V56.05a51.58,51.58,0,0,0-43.24,0Z"/><path d="M56,105.15H0V61.91H56.05a51.58,51.58,0,0,0,0,43.24Z"/><path d="M176.59,126.19a44.31,44.31,0,0,1-15.93-2.81,37,37,0,0,1-21.17-20.16,40.52,40.52,0,0,1,0-30.7A36.72,36.72,0,0,1,148,60.35a38.14,38.14,0,0,1,12.76-8,44.24,44.24,0,0,1,16-2.81,43.71,43.71,0,0,1,17.42,3.34,33.89,33.89,0,0,1,13.07,9.79l-11,10.16a25.8,25.8,0,0,0-8.47-6.51,23.69,23.69,0,0,0-10.16-2.17A26,26,0,0,0,168,65.85a21.6,21.6,0,0,0-7.51,4.87,22.11,22.11,0,0,0-4.92,7.52,27.37,27.37,0,0,0,0,19.26A22.11,22.11,0,0,0,160.5,105a21.75,21.75,0,0,0,7.51,4.87,26,26,0,0,0,9.53,1.69,23.69,23.69,0,0,0,10.16-2.17,25,25,0,0,0,8.47-6.62l11,10.17a34.52,34.52,0,0,1-13.07,9.84A43.46,43.46,0,0,1,176.59,126.19Z"/><path d="M252.17,67.12a26.55,26.55,0,0,1,12.12,2.7,19.58,19.58,0,0,1,8.41,8.26q3.07,5.55,3.07,14.24v32.6H259.26V94.86q0-6.89-3-10.17c-2-2.18-4.85-3.28-8.52-3.28a15,15,0,0,0-7,1.64,11.4,11.4,0,0,0-4.87,5,19,19,0,0,0-1.74,8.68v28.16H217.55V46.38h16.52V83.74L230.36,79a21.2,21.2,0,0,1,8.78-8.79A27.22,27.22,0,0,1,252.17,67.12Z"/><path d="M299,60a10.47,10.47,0,0,1-7.41-2.65,9,9,0,0,1,0-13.12A10.47,10.47,0,0,1,299,41.61a10.85,10.85,0,0,1,7.41,2.49,8.08,8.08,0,0,1,2.86,6.4,9.07,9.07,0,0,1-2.81,6.83A10.29,10.29,0,0,1,299,60Zm-8.25,64.89V68h16.51v57Z"/><path d="M322.56,124.92V68h15.77V84.06l-2.22-4.66a18.22,18.22,0,0,1,8.15-9.15,27.6,27.6,0,0,1,13.65-3.13V82.37c-.71-.07-1.34-.13-1.9-.16s-1.17-.06-1.8-.06q-6.78,0-11,3.87t-4.18,12v26.89Z"/><path d="M381.62,125.76a26.45,26.45,0,0,1-11.43-2.27,17.39,17.39,0,0,1-7.3-6.19,16.79,16.79,0,0,1-.05-17.68,16.25,16.25,0,0,1,7.88-6q5.4-2.17,14.08-2.17h15.14v9.63H386.6c-3.88,0-6.55.64-8,1.91a6.05,6.05,0,0,0-2.17,4.76,6,6,0,0,0,2.48,5,11.26,11.26,0,0,0,6.83,1.85,14.15,14.15,0,0,0,7.41-2,11.21,11.21,0,0,0,4.77-5.77l2.53,7.62a14.75,14.75,0,0,1-6.56,8.37Q389.15,125.76,381.62,125.76Zm17.36-.84V113.8l-1.05-2.43V91.47a10.67,10.67,0,0,0-3.23-8.26q-3.24-3-9.9-3a28.55,28.55,0,0,0-8.95,1.43,23.78,23.78,0,0,0-7.46,3.86L362.47,74a35.78,35.78,0,0,1,11.22-5.08A50.1,50.1,0,0,1,387,67.12q13,0,20.22,6.14t7.2,19.16v32.5Z"/><path d="M429.36,124.92V46.38h16.52v78.54Z"/></g></g></svg>