<svg xmlns="http://www.w3.org/2000/svg" viewBox="0 0 839.33 636.74"><defs><style>.cls-1{fill:#f2f2f2;}.cls-2{fill:#ccc;}.cls-3{fill:#e6e6e6;}.cls-4{fill:#06061b;}.cls-5{fill:#3f3d56;}.cls-6{fill:#fff;}.cls-7{fill:#a0616a;}.cls-8{fill:#2f2e41;}.cls-9{fill:#f0f;}</style></defs><g id="Layer_2" data-name="Layer 2"><g id="Layer_1-2" data-name="Layer 1"><path class="cls-1" d="M715.13,606.17a4,4,0,0,0,2.92-7l-.28-1.1.11-.26a10.82,10.82,0,0,1,20,.07c3.26,7.86,7.42,15.73,8.44,24a32.09,32.09,0,0,1-.56,11,128.22,128.22,0,0,0,11.67-53.28,123,123,0,0,0-.77-13.82q-.63-5.64-1.76-11.2a130,130,0,0,0-25.74-55,34.54,34.54,0,0,1-14.36-14.9,26.31,26.31,0,0,1-2.4-7.2c.7.09,2.64-10.56,2.11-11.21,1-1.48,2.72-2.21,3.78-3.66,5.3-7.17,12.59-5.92,16.4,3.83,8.13,4.11,8.21,10.91,3.22,17.46-3.18,4.17-3.61,9.8-6.4,14.26.29.37.59.72.87,1.09A130.24,130.24,0,0,1,746,520.92a54.28,54.28,0,0,1,3.25-25.22c3.1-7.49,8.91-13.79,14-20.26,6.15-7.77,18.76-4.38,19.85,5.47l0,.29c-.76.43-1.51.88-2.24,1.36a5.47,5.47,0,0,0,2.21,9.95h.11a54.71,54.71,0,0,1-1.44,8.13c6.57,25.41-7.61,34.66-27.86,35.08-.45.23-.89.46-1.33.67a133.84,133.84,0,0,1,7.17,33.78,126.44,126.44,0,0,1-.09,20.41l0-.24a33.47,33.47,0,0,1,11.41-19.29c8.78-7.21,21.18-9.87,30.65-15.66,4.56-2.79,10.4.81,9.6,6.1l0,.25a37,37,0,0,0-4.11,2c-.76.43-1.51.89-2.23,1.37a5.46,5.46,0,0,0,2.2,9.94l.11,0,.23,0a54.22,54.22,0,0,1-10,15.67c-4.11,22.18-21.75,24.29-40.62,17.83h0a132.71,132.71,0,0,1-9,26.14h-32c-.12-.36-.22-.73-.32-1.08a36.5,36.5,0,0,0,8.85-.53c-2.38-2.91-4.75-5.85-7.12-8.76a.8.8,0,0,1-.15-.17c-1.2-1.49-2.42-3-3.62-4.46h0a52.92,52.92,0,0,1,1.56-13.56Z"/><path class="cls-2" d="M275.52,634.63a2.1,2.1,0,0,0,2.11,2.11H837.22a2.11,2.11,0,1,0,0-4.22H277.63A2.1,2.1,0,0,0,275.52,634.63Z"/><path class="cls-3" d="M485.74,482,477.09,489l-2.77,2.24c-.25-.34-.53-.69-.81-1a14.32,14.32,0,0,0-10.71-4.83H393.44a12.43,12.43,0,0,1-.17-3.55,13.06,13.06,0,0,1,4.86-9.09l48.72-39.13a13.12,13.12,0,0,1,18.46,2l22.45,27.95A13.13,13.13,0,0,1,485.74,482Z"/><path class="cls-4" d="M471.22,485.35H385.56a14.1,14.1,0,0,0-6.37,1.52l-.48-.37a12.24,12.24,0,0,1-2.23-2.2,13.11,13.11,0,0,1-.18-16.2l21.85-28.44a13.14,13.14,0,0,1,18.42-2.41l49.54,38.07a13,13,0,0,1,4.52,6.48A12.57,12.57,0,0,1,471.22,485.35Z"/><path class="cls-5" d="M541.29,45.19H33.76A33.79,33.79,0,0,0,0,79v523.5a33.79,33.79,0,0,0,33.76,33.76H541.29A33.78,33.78,0,0,0,575,602.45V79A33.78,33.78,0,0,0,541.29,45.19ZM571.5,602.45a30.24,30.24,0,0,1-30.21,30.21H33.76A30.23,30.23,0,0,1,3.55,602.45V79A30.23,30.23,0,0,1,33.76,48.74H541.29A30.24,30.24,0,0,1,571.5,79Z"/><path class="cls-3" d="M229,79.53H179.2a4.56,4.56,0,0,0,0,9.11H229a4.56,4.56,0,0,0,0-9.11Z"/><path class="cls-3" d="M312.42,79.53h-49.8a4.56,4.56,0,0,0,0,9.11h49.8a4.56,4.56,0,0,0,0-9.11Z"/><path class="cls-3" d="M395.84,79.53H346a4.56,4.56,0,0,0,0,9.11h49.8a4.56,4.56,0,0,0,0-9.11Z"/><path class="cls-1" d="M155.48,170.32H93a14,14,0,0,0-14,14v35.85a14,14,0,0,0,14,14h62.48a14,14,0,0,0,14-14V184.34A14,14,0,0,0,155.48,170.32Z"/><path class="cls-3" d="M155.48,264.38H93a14,14,0,0,0-14,14v35.85a14,14,0,0,0,14,14h62.48a14,14,0,0,0,14-14V278.4A14,14,0,0,0,155.48,264.38Z"/><path class="cls-3" d="M155.48,358.45H93a14,14,0,0,0-14,14v35.85a14,14,0,0,0,14,14h62.48a14,14,0,0,0,14-14V372.47A14,14,0,0,0,155.48,358.45Z"/><path class="cls-3" d="M293.91,170.32H231.44a14,14,0,0,0-14,14v35.85a14,14,0,0,0,14,14h62.47a14,14,0,0,0,14-14V184.34A14,14,0,0,0,293.91,170.32Z"/><path class="cls-1" d="M293.91,264.38H231.44a14,14,0,0,0-14,14v35.85a14,14,0,0,0,14,14h62.47a14,14,0,0,0,14-14V278.4A14,14,0,0,0,293.91,264.38Z"/><path class="cls-3" d="M432.35,264.38H369.87a14,14,0,0,0-14,14v35.85a14,14,0,0,0,14,14h62.48a14,14,0,0,0,14-14V278.4A14,14,0,0,0,432.35,264.38Z"/><path class="cls-1" d="M478,532.38H97.07a28.77,28.77,0,0,0-28.74,28.74v25.94A28.77,28.77,0,0,0,97.07,615.8H478a28.76,28.76,0,0,0,28.73-28.74V561.12A28.76,28.76,0,0,0,478,532.38Z"/><path class="cls-6" d="M491.29,481.85c-.3-.37-.6-.76-.92-1.12a17.87,17.87,0,0,0-13.37-6,343.53,343.53,0,0,1-98.54,0,17.86,17.86,0,0,0-9.08,2.5,17.15,17.15,0,0,0-4.28,3.53,17.85,17.85,0,0,0-4.35,14l15.57,125.81A17.86,17.86,0,0,0,394,636.21h67.45a17.86,17.86,0,0,0,17.69-15.66l15.57-125.81A17.91,17.91,0,0,0,491.29,481.85Z"/><path class="cls-5" d="M491.29,481.85c-.3-.37-.6-.76-.92-1.12a17.87,17.87,0,0,0-13.37-6,461.08,461.08,0,0,1-98.54,0,17.86,17.86,0,0,0-9.08,2.5,17.15,17.15,0,0,0-4.28,3.53,17.85,17.85,0,0,0-4.35,14l15.57,125.81a17.84,17.84,0,0,0,17.62,15.66h67.52a17.85,17.85,0,0,0,17.69-15.66l15.57-125.81A17.91,17.91,0,0,0,491.29,481.85Zm-.11,12.44L475.64,620.11s0,.09,0,.13a14.31,14.31,0,0,1-14.16,12.42H394a14.31,14.31,0,0,1-14.16-12.42s0-.09,0-.13L364.28,494.29a14.34,14.34,0,0,1,3.48-11.21,13.86,13.86,0,0,1,4.33-3.3,14,14,0,0,1,6.37-1.53,255.66,255.66,0,0,0,98.54,0,14.32,14.32,0,0,1,10.71,4.83c.28.32.56.67.81,1A14.27,14.27,0,0,1,491.18,494.29Z"/><path class="cls-4" d="M477.43,620.24l-.92,7.68a17.85,17.85,0,0,1-15.05,8.29H393.94A17.84,17.84,0,0,1,380,629.43l-.22-9.19Z"/><polygon class="cls-7" points="548.48 208.16 463.53 266.54 453.05 255.22 531.2 189.74 548.48 208.16"/><ellipse class="cls-7" cx="449.76" cy="267.5" rx="19.42" ry="11.53" transform="translate(-68.41 340.58) rotate(-38.77)"/><polygon class="cls-7" points="592.1 626.53 575.95 626.53 568.27 564.27 592.1 564.27 592.1 626.53"/><path class="cls-8" d="M536.79,626.17h0a13.9,13.9,0,0,0-.77,4.56h0a5.48,5.48,0,0,0,5.48,5.48h50a3.73,3.73,0,0,0,3.74-3.74v-2.08s2.47-6.26-2.62-14c0,0-6.33,6-15.78-3.42L574,608l-20.18,14.76-11.19,1.37c-2.45.3-4.62,0-5.88,2.08Z"/><polygon class="cls-7" points="646.64 626.53 630.5 626.53 622.82 564.27 646.65 564.27 646.64 626.53"/><path class="cls-8" d="M591.34,626.17h0a13.9,13.9,0,0,0-.77,4.56h0a5.48,5.48,0,0,0,5.48,5.48h50a3.73,3.73,0,0,0,3.74-3.74v-2.08s2.47-6.26-2.62-14c0,0-6.33,6-15.78-3.42l-2.79-5-20.18,14.76-11.19,1.37c-2.45.3-4.62,0-5.88,2.08Z"/><path class="cls-4" d="M564.31,279.5,545.82,457s12.94,121.12,15.72,121.12,5.55,2.28,2.77,4.84-6.47,4.4-2.77,4.4,4.15-1.12,3.92,2.68a11.24,11.24,0,0,1-3,6.57l37.91-2.77L595.75,470,613.31,371s5.55,206.18,7.4,208,1.85-2.77,1.85,1.85-1.85,6.47-1.85,6.47l-.09,9.25h27.52l39.14-257-6.47-64.72Z"/><path class="cls-9" d="M654.92,88.11H621.64l-20,5c-10.79,6.4-30.12,25.46-29.63,38l4.29,110.49s-14.71,34.67-11.93,34.67-10.72,11.1-10.72,17.57-4.62,5.55-1.85,8.32,135.45,0,135.45,0a17.79,17.79,0,0,0,1.39-7.39,11,11,0,0,1,2.75-7.38V278.7l-8.3-30.17,14.79-135-43-25.43Z"/><path class="cls-9" d="M488.8,223l11.33,19.62c6.19-3.74,36.08-21.7,41.25-22.12,2-.16,2.39-.52,2.48-.63s.06-.35,0-.74a2.58,2.58,0,0,1,.5-2.26,1.54,1.54,0,0,1,2.36-.13c.67.51,1.8,1.36,5.43.85.93-.14,1.52-.25,1.88-.34l0,0a5.87,5.87,0,0,1-2.21-4c-.09-1.8-.11-2.28.54-2.59a1.2,1.2,0,0,1,1.36.4,3.64,3.64,0,0,0,2.86,1.07c4.11-1.34,42.28-56.45,49.73-78.41,1.86-5.46,1.63-10.54-.68-15.08-4.43-8.71-15.26-13.08-17.93-14l-54.19,76Z"/><circle class="cls-7" cx="638.87" cy="45.15" r="35.85"/><path class="cls-4" d="M682.24,23.36c-3.15-6.76-10.13-12-17.58-11.63a5.88,5.88,0,0,0-1.72-5.27,13.92,13.92,0,0,0-4.9-3A47.19,47.19,0,0,0,630,1.14c-.93-1.3-14.2,2-12.61,2.66s-4.22,2.34-4.49,4.05c-.3,1.88-2.28,3-4.16,3.32s-3.81,0-5.67.36c-3.76.71.45,5.33.39,9.15s-4.36,6.45-.62,7.27-1.48,7.67,2.4,6.93c8.77-1.66,47.06-5.21,50.47,3,.95,2.29,1.54,4.88,3.4,6.52,2.53,2.23,6.75,2.05,8.82,4.72,1.67,2.14,1.19,5.3,0,7.72s-3.11,4.49-4.23,7c-1.5,3.32-1.49,7-1.07,10.7a7,7,0,0,1,1.61-.52l-.33,0a51.8,51.8,0,0,0,19.52-28.82c1.84-7.22,2-15.14-1.13-21.89Z"/><rect class="cls-9" x="631.84" y="322.06" width="88.74" height="62.12" rx="13.13"/><polygon class="cls-7" points="719.91 221.82 684.46 318.61 669.37 315.44 695.15 216.8 719.91 221.82"/><ellipse class="cls-7" cx="673.8" cy="327.36" rx="19.42" ry="11.53" transform="translate(174.95 886.22) rotate(-74.16)"/><path class="cls-9" d="M662,93.11s38.68,6.56,47.92,27.83,18.49,89.68,15.72,92.45-5.55,0-2.77,2.78,7.47-.88,3.27,4.18-6,2.29-6,4.14,3.7,1.34,0,5.29-15.71,44.64-15.71,44.64L681.27,267l4.62-61.95L662,93.11Z"/><rect class="cls-5" x="401.11" y="270.59" width="88.74" height="62.12" rx="13.13"/><rect class="cls-5" x="425.79" y="436.62" width="3.55" height="127.46" transform="translate(-78.13 921.57) rotate(-89.28)"/></g></g></svg>