<svg xmlns="http://www.w3.org/2000/svg" viewBox="0 0 1071.23 701.37"><defs><style>.cls-1{fill:#f0f;}.cls-2{fill:#e6e6e6;}.cls-3{fill:#f2f2f2;}.cls-4{fill:#06061b;}.cls-5{fill:#2f2e41;}.cls-6{fill:#3f3d56;}.cls-7{isolation:isolate;opacity:0.2;}.cls-8{fill:#6c63ff;}.cls-9{fill:#ffb6b6;}.cls-10{fill:#a0616a;}</style></defs><g id="Layer_2" data-name="Layer 2"><g id="Layer_1-2" data-name="Layer 1"><circle class="cls-1" cx="530.11" cy="86.74" r="32.5"/><path class="cls-2" d="M602.84,71.35A16.11,16.11,0,0,0,589.24,60H589a2,2,0,0,0-.26-.06c-10.88-1.41-23,2-31.12,9.49a29.26,29.26,0,0,0-7.1,9.79,15.72,15.72,0,0,0-13.18-6.43A16.05,16.05,0,0,0,523,84.41a1.86,1.86,0,0,0,.84,2.06,8.21,8.21,0,0,0,3.39,1.72c2.69.58,5.41,1.1,8.12,1.57q8,1.39,16,2.26,5.31.56,10.65.9c7.35.46,14.73.57,22.1.34,3.65-.13,7.15-.25,10.49-1.85a15.58,15.58,0,0,0,6-5.25A17.68,17.68,0,0,0,602.84,71.35Z"/><path class="cls-2" d="M536,118.69a16.5,16.5,0,0,0-.68-4,16.14,16.14,0,0,0-13.6-11.31.74.74,0,0,0-.21,0,1.4,1.4,0,0,0-.28-.06,40.34,40.34,0,0,0-17.88,1.84c-8.84,3-16.59,8.92-20.33,17.44a15.73,15.73,0,0,0-13.19-6.43,16.05,16.05,0,0,0-14.36,11.58,1.88,1.88,0,0,0,.84,2,8.11,8.11,0,0,0,3.39,1.73c2.71.57,5.41,1.1,8.14,1.57q7.95,1.4,16,2.25a235.79,235.79,0,0,0,32.76,1.24c3.64-.12,7.16-.24,10.49-1.85a15.54,15.54,0,0,0,6-5.24A17.38,17.38,0,0,0,536,118.69Z"/><path class="cls-3" d="M959.22,513a209.29,209.29,0,0,1-9.05,65.44c-.23.77-.5,1.54-.77,2.31H816.06a119.4,119.4,0,0,1,9-27.17c11.1-23.55,29.21-43.71,47.1-63.73,24.64-27.58,48.69-54.94,52.5-90.81a206.26,206.26,0,0,1,23.19,47.88,56.3,56.3,0,0,0-18.62,11.41c-1.49,1.4-3.08,3.44-2.31,5.39.73,1.63,2.72,2.17,4.49,2.53,4.25.82,8.51,1.64,12.77,2.41,3.35.67,6.75,1.31,10.14,1.94A221.43,221.43,0,0,1,959.22,513Z"/><path class="cls-3" d="M1071.23,498.34c-21.38,13-35,33.11-46.06,55.62a56.79,56.79,0,0,0-25.86,13.59c-1.54,1.4-3.13,3.44-2.31,5.39.68,1.63,2.72,2.17,4.48,2.53,4.21.82,8.52,1.63,12.73,2.4-.41,1-.82,2-1.22,2.9H871.68a199.23,199.23,0,0,1,21.24-24.27c1.67-1.68,3.4-3.27,5.16-4.9A211.22,211.22,0,0,1,959.22,513,215.1,215.1,0,0,1,1071.23,498.34Z"/><path class="cls-3" d="M895.23,580.77H769.41a203.63,203.63,0,0,1,.18-30.25c5-62.19,38.86-121.43,89.9-157.3-6.52,23.23-3.17,46.33,3.63,69.52-1,.32-1.91.59-2.77.95a56.29,56.29,0,0,0-18.61,11.42c-1.5,1.4-3.08,3.44-2.31,5.39.68,1.63,2.72,2.17,4.48,2.53,4.26.82,8.52,1.63,12.73,2.4,3.4.68,6.79,1.32,10.19,2,1.59.27,3.17.58,4.76.9.22.55.36,1,.58,1.54,8,22,16.67,44.12,20.75,66.63A155,155,0,0,1,895,573.57C895.14,576,895.23,578.37,895.23,580.77Z"/><path class="cls-3" d="M209.5,513a209,209,0,0,1-9.06,65.44c-.22.77-.5,1.54-.77,2.31H66.33a119.92,119.92,0,0,1,9-27.17c11.09-23.55,29.21-43.71,47.1-63.73,24.64-27.58,48.69-54.94,52.49-90.81a205.86,205.86,0,0,1,23.19,47.88,56.26,56.26,0,0,0-18.61,11.41c-1.5,1.4-3.08,3.44-2.31,5.39.72,1.63,2.71,2.17,4.48,2.53,4.26.82,8.52,1.64,12.77,2.41,3.35.67,6.75,1.31,10.15,1.94A223,223,0,0,1,209.5,513Z"/><path class="cls-3" d="M321.51,498.34c-21.38,13-35,33.11-46.07,55.62a56.84,56.84,0,0,0-25.86,13.59c-1.54,1.4-3.12,3.44-2.31,5.39.68,1.63,2.72,2.17,4.49,2.53,4.21.82,8.51,1.63,12.72,2.4-.4,1-.81,2-1.22,2.9H122a200.09,200.09,0,0,1,21.24-24.27c1.68-1.68,3.4-3.27,5.17-4.9A211.09,211.09,0,0,1,209.5,513,215.08,215.08,0,0,1,321.51,498.34Z"/><path class="cls-3" d="M145.5,580.77H19.68a206.38,206.38,0,0,1,.18-30.25c5-62.19,38.86-121.43,89.91-157.3-6.52,23.23-3.17,46.33,3.62,69.52-1,.32-1.9.59-2.76.95A56.33,56.33,0,0,0,92,475.11c-1.49,1.4-3.08,3.44-2.31,5.39.68,1.63,2.72,2.17,4.49,2.53,4.26.82,8.51,1.63,12.72,2.4,3.4.68,6.8,1.32,10.2,2,1.58.27,3.17.58,4.75.9.23.55.36,1,.59,1.54,8,22,16.67,44.12,20.74,66.63a155.06,155.06,0,0,1,2.09,17.07C145.41,576,145.5,578.37,145.5,580.77Z"/><path class="cls-2" d="M613.91,528l112.42,10,1.21.11V58.33l-1.21-.83a350.84,350.84,0,0,0-75.47-40.1l-5.74,79.24-.53,7.25-5.68,78.58-1.75,24.17-23,318.51Z"/><path class="cls-2" d="M335.89,49.4c-.8.51-1.61,1-2.41,1.56V538l2.41-.22L447.1,528l-.21-2.8-23-318.51-1.75-24.17-5.69-78.58-.52-7.25-6-83.09A350.27,350.27,0,0,0,335.89,49.4Z"/><path class="cls-2" d="M333.48,51c-1.62,1-3.24,2.12-4.83,3.2V544.68c0,12.26,7.27,22.53,17,25.15a18.61,18.61,0,0,0,4.87.64H711.73a18.46,18.46,0,0,0,4.85-.64,20.72,20.72,0,0,0,9.47-5.67,27.88,27.88,0,0,0,7.52-19.48v-482c-2-1.47-4-2.93-6-4.36l-1.21-.83V544.68a19,19,0,0,1-.56,4.69c-1.71,7.24-7.37,12.55-14,12.55H350.5c-8.06,0-14.61-7.73-14.61-17.24V49.4C335.09,49.91,334.28,50.42,333.48,51Z"/><rect class="cls-2" x="332.27" y="96.64" width="397.69" height="7.25"/><path class="cls-2" d="M608.15,4.13c-2.41-.6-4.82-1.16-7.25-1.68V199.38h7.25Z"/><path class="cls-2" d="M461.32,0c-2.42.45-4.84.91-7.25,1.41v198h7.25Z"/><path class="cls-2" d="M254.3,557.78a32.38,32.38,0,0,0,2.35,12.14,30.61,30.61,0,0,0,2.13,4.34,32.68,32.68,0,0,0,28.16,16.17H763.2a32.64,32.64,0,0,0,0-65.28H286.94A32.67,32.67,0,0,0,254.3,557.78Z"/><rect class="cls-2" x="332.27" y="182.46" width="395.27" height="24.18"/><path class="cls-2" d="M546.82,188.51H513a13.29,13.29,0,0,1,13.3-13.3h7.25a13.29,13.29,0,0,1,13.29,13.3Z"/><path class="cls-4" d="M0,576.42a351.46,351.46,0,0,0,34.22,35.24H1015.9a351.56,351.56,0,0,0,34.23-35.24Z"/><path class="cls-5" d="M482.81,458.6V583.42h87.44V458.6a4.19,4.19,0,0,0-3-4,3.85,3.85,0,0,0-1.26-.19H487a4.2,4.2,0,0,0-4.22,4.2Zm34.12,42.89a9.34,9.34,0,0,1,18.67,0V516a9.34,9.34,0,0,1-18.67,0Z"/><path class="cls-6" d="M482.54,579.43v12a2.37,2.37,0,0,0,2.35,2.36h83.28a2.36,2.36,0,0,0,2.35-2.36v-12Z"/><path class="cls-6" d="M345.24,270.53V498.45a11,11,0,0,0,10.95,10.95H693.93a11,11,0,0,0,11-10.95V270.53a11,11,0,0,0-11-10.94H356.19A11,11,0,0,0,345.24,270.53Z"/><path class="cls-1" d="M353.16,273.37V495.63a5.88,5.88,0,0,0,5.86,5.86h332.1a5.88,5.88,0,0,0,5.86-5.86V273.37a5.87,5.87,0,0,0-5.86-5.87H359A5.87,5.87,0,0,0,353.16,273.37Z"/><path class="cls-5" d="M420.88,596.66A3.62,3.62,0,0,0,423.7,598H621.29a3.65,3.65,0,0,0,3.63-3.65,3.81,3.81,0,0,0-.08-.74l-3.07-14.56a3.66,3.66,0,0,0-2.26-2.65,3.56,3.56,0,0,0-1.29-.24H426.76a3.56,3.56,0,0,0-1.29.24,3.64,3.64,0,0,0-2.26,2.65l-3.07,14.56A3.63,3.63,0,0,0,420.88,596.66Z"/><rect class="cls-6" x="610.73" y="578.8" width="6.09" height="3.65" rx="0.59"/><rect class="cls-6" x="598.56" y="578.8" width="6.09" height="3.65" rx="0.59"/><rect class="cls-6" x="586.39" y="578.8" width="6.09" height="3.65" rx="0.59"/><rect class="cls-6" x="574.22" y="578.8" width="6.09" height="3.65" rx="0.59"/><rect class="cls-6" x="562.05" y="578.8" width="6.09" height="3.65" rx="0.59"/><rect class="cls-6" x="549.88" y="578.8" width="6.09" height="3.65" rx="0.59"/><rect class="cls-6" x="537.7" y="578.8" width="6.09" height="3.65" rx="0.59"/><rect class="cls-6" x="525.53" y="578.8" width="6.09" height="3.65" rx="0.59"/><rect class="cls-6" x="513.36" y="578.8" width="6.09" height="3.65" rx="0.59"/><rect class="cls-6" x="501.19" y="578.8" width="6.09" height="3.65" rx="0.59"/><rect class="cls-6" x="489.02" y="578.8" width="6.09" height="3.65" rx="0.59"/><rect class="cls-6" x="476.85" y="578.8" width="6.09" height="3.65" rx="0.59"/><rect class="cls-6" x="464.68" y="578.8" width="6.09" height="3.65" rx="0.59"/><rect class="cls-6" x="452.51" y="578.8" width="6.09" height="3.65" rx="0.59"/><rect class="cls-6" x="440.34" y="578.8" width="6.09" height="3.65" rx="0.59"/><rect class="cls-6" x="428.17" y="578.8" width="6.09" height="3.65" rx="0.59"/><rect class="cls-6" x="610.87" y="584.89" width="6.09" height="3.65" rx="0.59"/><rect class="cls-6" x="598.7" y="584.89" width="6.09" height="3.65" rx="0.59"/><rect class="cls-6" x="586.53" y="584.89" width="6.09" height="3.65" rx="0.59"/><rect class="cls-6" x="574.36" y="584.89" width="6.09" height="3.65" rx="0.59"/><rect class="cls-6" x="562.19" y="584.89" width="6.09" height="3.65" rx="0.59"/><rect class="cls-6" x="550.02" y="584.89" width="6.09" height="3.65" rx="0.59"/><rect class="cls-6" x="537.85" y="584.89" width="6.09" height="3.65" rx="0.59"/><rect class="cls-6" x="525.68" y="584.89" width="6.09" height="3.65" rx="0.59"/><rect class="cls-6" x="513.51" y="584.89" width="6.09" height="3.65" rx="0.59"/><rect class="cls-6" x="501.34" y="584.89" width="6.09" height="3.65" rx="0.59"/><rect class="cls-6" x="489.17" y="584.89" width="6.09" height="3.65" rx="0.59"/><rect class="cls-6" x="476.99" y="584.89" width="6.09" height="3.65" rx="0.59"/><rect class="cls-6" x="464.82" y="584.89" width="6.09" height="3.65" rx="0.59"/><rect class="cls-6" x="452.65" y="584.89" width="6.09" height="3.65" rx="0.59"/><rect class="cls-6" x="440.48" y="584.89" width="6.09" height="3.65" rx="0.59"/><rect class="cls-6" x="428.31" y="584.89" width="6.09" height="3.65" rx="0.59"/><rect class="cls-6" x="509.86" y="592.19" width="48.68" height="3.65" rx="0.59"/><path class="cls-6" d="M375.7,298.12H686.45a1.24,1.24,0,0,0,0-2.47H375.7a1.24,1.24,0,0,0,0,2.47Z"/><ellipse class="cls-6" cx="665.3" cy="281.94" rx="7.24" ry="7.4"/><ellipse class="cls-6" cx="640.28" cy="281.94" rx="7.24" ry="7.4"/><ellipse class="cls-6" cx="615.26" cy="281.94" rx="7.24" ry="7.4"/><path class="cls-6" d="M389.44,277.71a1.33,1.33,0,0,0,1.33,1.34h17.77a1.35,1.35,0,0,0,0-2.69H390.77A1.35,1.35,0,0,0,389.44,277.71Z"/><path class="cls-6" d="M389.44,282.77a1.33,1.33,0,0,0,1.33,1.33h17.77a1.35,1.35,0,0,0,0-2.69H390.77A1.36,1.36,0,0,0,389.44,282.77Z"/><path class="cls-6" d="M389.44,287.8a1.36,1.36,0,0,0,1.33,1.36h17.77a1.35,1.35,0,0,0,1.31-1.38,1.33,1.33,0,0,0-1.31-1.31H390.77a1.33,1.33,0,0,0-1.33,1.33Z"/><path class="cls-2" d="M388.55,326.84h6.38a3.51,3.51,0,0,1,3.51,3.51h0a3.51,3.51,0,0,1-3.51,3.5h-6.38a3.51,3.51,0,0,1-3.51-3.5h0A3.51,3.51,0,0,1,388.55,326.84Z"/><path class="cls-2" d="M461.57,326.84H468a3.51,3.51,0,0,1,3.51,3.51h0a3.51,3.51,0,0,1-3.51,3.5h-6.39a3.5,3.5,0,0,1-3.5-3.5h0A3.51,3.51,0,0,1,461.57,326.84Z"/><path class="cls-2" d="M482.27,326.84h6.38a3.51,3.51,0,0,1,3.51,3.51h0a3.51,3.51,0,0,1-3.51,3.5h-6.38a3.51,3.51,0,0,1-3.51-3.5h0A3.51,3.51,0,0,1,482.27,326.84Z"/><path class="cls-2" d="M408.41,326.26H448.1a3.5,3.5,0,0,1,3.5,3.5h0a3.51,3.51,0,0,1-3.5,3.51H408.41a3.51,3.51,0,0,1-3.5-3.51h0A3.5,3.5,0,0,1,408.41,326.26Z"/><path class="cls-2" d="M505.78,326.26h39.68a3.51,3.51,0,0,1,3.51,3.5h0a3.51,3.51,0,0,1-3.51,3.51H505.78a3.51,3.51,0,0,1-3.51-3.51h0A3.51,3.51,0,0,1,505.78,326.26Z"/><path class="cls-2" d="M408,342.66h6.39a3.51,3.51,0,0,1,3.5,3.51h0a3.5,3.5,0,0,1-3.5,3.5H408a3.5,3.5,0,0,1-3.5-3.5h0A3.51,3.51,0,0,1,408,342.66Z"/><path class="cls-2" d="M481.05,342.66h6.38a3.51,3.51,0,0,1,3.51,3.51h0a3.51,3.51,0,0,1-3.51,3.5h-6.38a3.51,3.51,0,0,1-3.51-3.5h0A3.51,3.51,0,0,1,481.05,342.66Z"/><path class="cls-2" d="M501.74,342.66h6.38a3.51,3.51,0,0,1,3.51,3.51h0a3.51,3.51,0,0,1-3.51,3.5h-6.38a3.51,3.51,0,0,1-3.51-3.5h0A3.51,3.51,0,0,1,501.74,342.66Z"/><path class="cls-2" d="M427.89,342.08h39.68a3.51,3.51,0,0,1,3.51,3.5h0a3.51,3.51,0,0,1-3.51,3.51H427.89a3.51,3.51,0,0,1-3.51-3.51h0A3.51,3.51,0,0,1,427.89,342.08Z"/><path class="cls-2" d="M525.25,342.08h39.69a3.5,3.5,0,0,1,3.5,3.5h0a3.51,3.51,0,0,1-3.5,3.51H525.25a3.51,3.51,0,0,1-3.5-3.51h0A3.5,3.5,0,0,1,525.25,342.08Z"/><path class="cls-2" d="M427.5,358.48h6.38a3.51,3.51,0,0,1,3.51,3.51h0a3.5,3.5,0,0,1-3.51,3.5H427.5A3.5,3.5,0,0,1,424,362h0A3.51,3.51,0,0,1,427.5,358.48Z"/><path class="cls-2" d="M500.52,358.48h6.39a3.51,3.51,0,0,1,3.5,3.51h0a3.5,3.5,0,0,1-3.5,3.5h-6.39A3.5,3.5,0,0,1,497,362h0A3.51,3.51,0,0,1,500.52,358.48Z"/><path class="cls-2" d="M521.21,358.48h6.39a3.51,3.51,0,0,1,3.5,3.51h0a3.5,3.5,0,0,1-3.5,3.5h-6.39a3.5,3.5,0,0,1-3.5-3.5h0A3.51,3.51,0,0,1,521.21,358.48Z"/><path class="cls-2" d="M447.36,357.9H487a3.51,3.51,0,0,1,3.51,3.51h0a3.51,3.51,0,0,1-3.51,3.5H447.36a3.51,3.51,0,0,1-3.51-3.5h0A3.51,3.51,0,0,1,447.36,357.9Z"/><path class="cls-2" d="M544.73,357.9h39.68a3.51,3.51,0,0,1,3.51,3.51h0a3.51,3.51,0,0,1-3.51,3.5H544.73a3.51,3.51,0,0,1-3.51-3.5h0A3.51,3.51,0,0,1,544.73,357.9Z"/><path class="cls-2" d="M447,374.31h6.38a3.51,3.51,0,0,1,3.51,3.5h0a3.51,3.51,0,0,1-3.51,3.51H447a3.51,3.51,0,0,1-3.51-3.51h0A3.51,3.51,0,0,1,447,374.31Z"/><path class="cls-2" d="M520,374.31h6.38a3.51,3.51,0,0,1,3.51,3.5h0a3.51,3.51,0,0,1-3.51,3.51H520a3.51,3.51,0,0,1-3.51-3.51h0A3.51,3.51,0,0,1,520,374.31Z"/><path class="cls-2" d="M540.69,374.31h6.38a3.51,3.51,0,0,1,3.51,3.5h0a3.51,3.51,0,0,1-3.51,3.51h-6.38a3.51,3.51,0,0,1-3.51-3.51h0A3.51,3.51,0,0,1,540.69,374.31Z"/><path class="cls-2" d="M466.83,373.72h39.69a3.51,3.51,0,0,1,3.5,3.51h0a3.5,3.5,0,0,1-3.5,3.5H466.83a3.5,3.5,0,0,1-3.5-3.5h0A3.51,3.51,0,0,1,466.83,373.72Z"/><path class="cls-2" d="M461.57,437.22H468a3.51,3.51,0,0,1,3.51,3.51h0a3.51,3.51,0,0,1-3.51,3.5h-6.39a3.5,3.5,0,0,1-3.5-3.5h0A3.51,3.51,0,0,1,461.57,437.22Z"/><path class="cls-2" d="M482.27,437.22h6.38a3.51,3.51,0,0,1,3.51,3.51h0a3.51,3.51,0,0,1-3.51,3.5h-6.38a3.51,3.51,0,0,1-3.51-3.5h0A3.51,3.51,0,0,1,482.27,437.22Z"/><path class="cls-2" d="M505.78,437.81h39.68a3.51,3.51,0,0,1,3.51,3.5h0a3.51,3.51,0,0,1-3.51,3.51H505.78a3.51,3.51,0,0,1-3.51-3.51h0A3.51,3.51,0,0,1,505.78,437.81Z"/><path class="cls-2" d="M388.55,437.22h6.38a3.51,3.51,0,0,1,3.51,3.51h0a3.51,3.51,0,0,1-3.51,3.5h-6.38a3.51,3.51,0,0,1-3.51-3.5h0A3.51,3.51,0,0,1,388.55,437.22Z"/><path class="cls-2" d="M408.41,437.81H448.1a3.5,3.5,0,0,1,3.5,3.5h0a3.51,3.51,0,0,1-3.5,3.51H408.41a3.51,3.51,0,0,1-3.5-3.51h0A3.5,3.5,0,0,1,408.41,437.81Z"/><path class="cls-2" d="M408,421.4h6.39a3.51,3.51,0,0,1,3.5,3.51h0a3.5,3.5,0,0,1-3.5,3.5H408a3.5,3.5,0,0,1-3.5-3.5h0A3.51,3.51,0,0,1,408,421.4Z"/><path class="cls-2" d="M481.05,421.4h6.38a3.51,3.51,0,0,1,3.51,3.51h0a3.51,3.51,0,0,1-3.51,3.5h-6.38a3.51,3.51,0,0,1-3.51-3.5h0A3.51,3.51,0,0,1,481.05,421.4Z"/><path class="cls-2" d="M501.74,421.4h6.38a3.51,3.51,0,0,1,3.51,3.51h0a3.51,3.51,0,0,1-3.51,3.5h-6.38a3.51,3.51,0,0,1-3.51-3.5h0A3.51,3.51,0,0,1,501.74,421.4Z"/><path class="cls-2" d="M427.89,422h39.68a3.51,3.51,0,0,1,3.51,3.51h0a3.5,3.5,0,0,1-3.51,3.5H427.89a3.5,3.5,0,0,1-3.51-3.5h0A3.51,3.51,0,0,1,427.89,422Z"/><path class="cls-2" d="M427.5,405.58h6.38a3.51,3.51,0,0,1,3.51,3.5h0a3.51,3.51,0,0,1-3.51,3.51H427.5a3.51,3.51,0,0,1-3.51-3.51h0A3.51,3.51,0,0,1,427.5,405.58Z"/><path class="cls-2" d="M500.52,405.58h6.39a3.5,3.5,0,0,1,3.5,3.5h0a3.51,3.51,0,0,1-3.5,3.51h-6.39a3.51,3.51,0,0,1-3.5-3.51h0A3.5,3.5,0,0,1,500.52,405.58Z"/><path class="cls-2" d="M521.21,405.58h6.39a3.5,3.5,0,0,1,3.5,3.5h0a3.51,3.51,0,0,1-3.5,3.51h-6.39a3.51,3.51,0,0,1-3.5-3.51h0A3.5,3.5,0,0,1,521.21,405.58Z"/><path class="cls-2" d="M447.36,406.16H487a3.51,3.51,0,0,1,3.51,3.51h0a3.51,3.51,0,0,1-3.51,3.5H447.36a3.51,3.51,0,0,1-3.51-3.5h0A3.51,3.51,0,0,1,447.36,406.16Z"/><path class="cls-2" d="M447,389.76h6.38a3.51,3.51,0,0,1,3.51,3.5h0a3.51,3.51,0,0,1-3.51,3.51H447a3.51,3.51,0,0,1-3.51-3.51h0A3.51,3.51,0,0,1,447,389.76Z"/><path class="cls-2" d="M520,389.76h6.38a3.51,3.51,0,0,1,3.51,3.5h0a3.51,3.51,0,0,1-3.51,3.51H520a3.51,3.51,0,0,1-3.51-3.51h0A3.51,3.51,0,0,1,520,389.76Z"/><path class="cls-2" d="M540.69,389.76h6.38a3.51,3.51,0,0,1,3.51,3.5h0a3.51,3.51,0,0,1-3.51,3.51h-6.38a3.51,3.51,0,0,1-3.51-3.51h0A3.51,3.51,0,0,1,540.69,389.76Z"/><path class="cls-2" d="M466.83,390.34h39.69a3.51,3.51,0,0,1,3.5,3.51h0a3.5,3.5,0,0,1-3.5,3.5H466.83a3.5,3.5,0,0,1-3.5-3.5h0A3.51,3.51,0,0,1,466.83,390.34Z"/><path class="cls-1" d="M425.87,664.47c-.26.13-.53.27-.8.39-1.69.84-3.4,1.67-5.11,2.48q-7.71,3.67-15.61,7A348.66,348.66,0,0,1,361.79,689c-2.43-15.18-4.79-51-7.06-77.3-.42-4.95-.85-9.57-1.27-13.64a120.42,120.42,0,0,0-2.3-15.92,5,5,0,0,0-.48-1.18c.23,2.1.48,8.38.71,17.1.12,4.07.23,8.69.35,13.64.57,25.34,1.17,59.82,1.76,79.45q-2.53.63-5.09,1.22c-1.08.26-2.16.5-3.24.73-1.32.29-2.63.58-3.95.85s-2.75.57-4.12.84a352.84,352.84,0,0,1-68.23,6.62l-4.55,0c-.47,0-.93,0-1.4,0-1.34,0-2.73,0-4.14-.08a351.55,351.55,0,0,1-80.13-11.55l1.06-78,.18-13.64.07-5.17a18.6,18.6,0,0,0-1.07,5.17c-.43,3.32-.86,8-1.3,13.64-1.67,21.62-3.39,56.49-5.16,76.32-21.05-6-36.43-11.45-55.66-21.06l-2.24-1.12c.13-.94.28-1.88.41-2.84,2.18-15.14-.39-34.84,2-51.3,1.84-12.69,3.74-24.89,5.65-35.23,2.31-12.45,4.66-22.24,7-27,2.68-5.49,5.35-10.89,8-16.06q1.66-3.35,3.29-6.56l1.74-3.42c2.61-5.1,5.07-9.81,7.32-14,1.58-2.93,3-5.58,4.38-7.91,1.57-2.74,3-5,4.1-6.72a67.35,67.35,0,0,1,35.64-27l.36-.1.36.15.4.18,23.2-8.48,10.35-24.94,53.2-3.27,8.59,6.53,4.4,3.35,4.68,3.57,8.62,6.56,2.45.75,3.64,1.12,24.89,7.64.25-.11.37.1a67.23,67.23,0,0,1,33.3,23.73c.82,1.08,1.59,2.18,2.33,3.3,2,3,4.75,7.73,8,13.67,1.33,2.45,2.73,5.1,4.2,7.91.89,1.69,8.56,25.62,16,50.06,7,22.88,13.76,46.21,14.65,52.2.16,1.11.33,2.23.49,3.34,1,6.92,2,13.9,3,20.7,1.42,10.09,2.81,19.82,4.14,28.53Z"/><polygon class="cls-7" points="369.5 576.37 359.15 536.46 350.02 570.9 369.5 576.37"/><path class="cls-4" d="M19.27,575.91a7.8,7.8,0,0,0,7.52,5.27L59,580.35a7.7,7.7,0,0,0,7.28-5.67l4.57-48.79a11.75,11.75,0,1,0,4.56-22.45h0a10,10,0,0,0-2.11.22,8,8,0,0,0-5.93-2.56l-49.6,1.28a8.3,8.3,0,0,0-1.22.15,7.76,7.76,0,0,0-6.2,9,8.48,8.48,0,0,0,.27,1Zm52.54-53.33L75.06,511a7.81,7.81,0,0,0,0-4.1c.16,0,.3-.08.46-.08a8.41,8.41,0,0,1,.39,16.82,8,8,0,0,1-4.12-1Z"/><path class="cls-6" d="M16.58,502.53c1.05,6.05,12.93,10.29,27.22,9.56,13.13-.61,23.88-5.22,25.84-10.69a7.38,7.38,0,0,0-2.24-.3l-49.6,1.28A8.3,8.3,0,0,0,16.58,502.53Z"/><path class="cls-8" d="M46.42,549.1l.18-.08,7-4.59a.61.61,0,0,0,.18-.84.58.58,0,0,0-.18-.17l-7.27-4.77a.61.61,0,0,0-.85.17.62.62,0,0,0,.18.85h0l6.5,4.25L45.93,548a.6.6,0,0,0-.17.84.61.61,0,0,0,.66.26Z"/><path class="cls-8" d="M35.36,549.61a.61.61,0,0,0,.15-1.12l-6.45-3.7,6.24-4.63a.61.61,0,0,0-.73-1h0l-7,5.19a.61.61,0,0,0-.13.85.49.49,0,0,0,.19.16l7.26,4.17A.63.63,0,0,0,35.36,549.61Z"/><path class="cls-1" d="M45.72,553.11a.36.36,0,0,0,.17-.07.6.6,0,0,0,.2-.83h0l-9.92-16.32a.61.61,0,0,0-.84-.2.59.59,0,0,0-.2.83l9.92,16.32A.6.6,0,0,0,45.72,553.11Z"/><path class="cls-1" d="M955.59,665.79c-.74.38-1.49.76-2.24,1.12C934.12,676.53,918.74,682,897.7,688c-1.78-19.84-3.5-54.71-5.16-76.32-.44-5.61-.88-10.32-1.31-13.64a18,18,0,0,0-1.07-5.18l.08,5.18.18,13.64,1.06,78a351.72,351.72,0,0,1-80.14,11.55l-4.13.08-1.4,0-4.55,0a351.89,351.89,0,0,1-84.64-10.26c.6-19.63,1.19-54.11,1.76-79.45.13-4.95.23-9.57.36-13.64.23-8.72.47-15,.7-17.11a5.56,5.56,0,0,0-.47,1.19,116.74,116.74,0,0,0-2.3,15.92c-.43,4.07-.85,8.69-1.28,13.64-2.26,26.32-4.63,62.12-7.06,77.3a347,347,0,0,1-42.56-14.65q-10.95-4.56-21.52-9.84c1.34-8.77,2.74-18.59,4.18-28.77,1.12-7.9,2.27-16,3.45-24,1.83-12.39,63.85-146.19,78.47-150.87l.36-.1.26.11,24.89-7.64L759.5,452l2.44-.76,8.62-6.56,4.69-3.56,4.39-3.35,8.59-6.54,53.2,3.28,10.36,24.94L875,468l.4-.18.35-.15.37.1a67.28,67.28,0,0,1,35.63,27c1.15,1.72,2.53,4,4.1,6.72,1.34,2.32,2.8,5,4.39,7.91,2.25,4.17,4.71,8.88,7.31,14,.57,1.12,1.16,2.27,1.74,3.42l3.3,6.56c2.59,5.18,5.27,10.58,7.95,16.07,2.32,4.76,4.67,14.54,7,27,1.91,10.35,3.81,22.54,5.65,35.24,2.41,16.45-.16,36.16,2,51.3C955.31,663.92,955.46,664.86,955.59,665.79Z"/><circle class="cls-9" cx="799.57" cy="360.45" r="61.87"/><polygon class="cls-7" points="700.63 576.37 710.97 536.46 720.1 570.9 700.63 576.37"/><path class="cls-4" d="M975.82,550.37c-3.7,51,.14,73.41-20.29,115.44A348.59,348.59,0,0,1,897.7,688c-2.07.59-4.15,1.15-6.22,1.71a351.72,351.72,0,0,1-80.14,11.55l-4.13.08-1.4,0-4.55,0a351.89,351.89,0,0,1-84.64-10.26q-4.17-1-8.29-2.15a347.6,347.6,0,0,1-42.56-14.65q-10.95-4.56-21.52-9.84c-1.59-.81-3.19-1.61-4.76-2.44-8.07-14.19-12.66-31.45-12.75-52.18C632.32,574.11,963.48,519.55,975.82,550.37Z"/><path class="cls-7" d="M975.81,559.1c.19-3.16.4-6.42.65-9.81C964.12,518.47,633,573,627.37,608.76c0,3.28.16,6.46.4,9.56C641.29,583.06,955.9,531.2,975.81,559.1Z"/><path class="cls-9" d="M618.5,552.77l27.18-13.59L623,478l-6-30.84A23.32,23.32,0,0,0,579,433.9h0a23.32,23.32,0,0,0-3,32.28l22.16,27.7Z"/><path class="cls-1" d="M645.68,527.85,609.44,546,637,632.16a37.7,37.7,0,0,0,27.18,25.21h0a37.71,37.71,0,0,0,41.06-17.28l72.93-125a38.48,38.48,0,0,0-12.4-52.31h0a38.48,38.48,0,0,0-53.11,11.92,37.43,37.43,0,0,0-2,3.61l-44.52,94.86Z"/><circle class="cls-10" cx="254.99" cy="349.98" r="68.08"/><path class="cls-4" d="M187.73,303.06c5.53-7.46,13.49-12.76,19.58-19.78,3.33-3.85,6.11-8.22,9.86-11.66,7-6.41,16.73-9,26.19-9.36a66.12,66.12,0,0,1,54,25.6l14.84-8.7q2.93,7.72,5.86,15.44a9,9,0,0,1,13.71,11.25c1.18-3.64,6.57-4.41,9.54-2s3.77,6.68,3.29,10.48a21.08,21.08,0,0,1-15.9,17.43c-6.46,1.44-14-.07-19.14,4.06-4.14,3.31-5.39,9.34-9.62,12.54-5.21,3.94-12.57,2.12-19,3-11.33,1.52-20.3,13.11-18.94,24.46-1-3.58-2.1-7.27-4.43-10.18s-6.24-4.87-9.81-3.8c-5.9,1.76-6.87,9.8-5.44,15.79,3.79,15.88,18.16,41.56,18.16,41.56-18.65,7.36-40.88.4-55.27-13.57S183.24,371.87,180,352.08C177.2,335.3,177.6,316.72,187.73,303.06Z"/><path class="cls-4" d="M877.11,394.56c12.95-29.7,5.61-57-10.18-71.52h0c-6.2-13.91-14.46-24.65-23.9-27.17-4.57-2.93-9-6.37-13.91-8.13a18.12,18.12,0,0,0-14.22.65l-2.51-.67c-2.12-5.44-4.62-5.55-7.39-2-10.69-5-20.32-7.21-28.89-7.21-27.94,0-44.47,23.66-48.85,52.26L750.62,337l8.11-12.93L755,338.18l12.89,3.42c19.62,25.55-3.85,84.48-33.61,117.27q10.62-2.94,21.16-5L781,416.47l-15.82,34.07c8.21-1.2,18.69-.05,30.14,2.28,3.86-5,5.89-11.76,3.9-17.75a68.17,68.17,0,0,1,6.67,20.12c24.17,5.91,57.14,8.94,74.91,11.18C895.12,461.68,895.15,408.75,877.11,394.56Z"/><path class="cls-5" d="M885.53,293.55c9.49,21.24-9.65,30.38-27.19,30.12-15.84-.23-29.31-11.36-30.12-27.19a28.69,28.69,0,0,1,27.19-30.12h0C871.24,265.55,879.07,279.08,885.53,293.55Z"/><path class="cls-10" d="M445.43,639.35,429.8,613.28l52-39.42,21.61-22.81a23.31,23.31,0,0,1,39.24,9.26h0a23.31,23.31,0,0,1-14.78,28.85l-33.57,11.46Z"/><path class="cls-1" d="M456.73,638.49,432.4,658.76l-6.56,5.47-.77.63c-1.69.84-3.4,1.67-5.11,2.48q-7.71,3.67-15.61,7A348.66,348.66,0,0,1,361.79,689q-4.12,1.13-8.29,2.15-2.53.63-5.09,1.22c-1.08.26-2.16.5-3.24.73-1.32.29-2.63.58-3.95.85s-2.75.57-4.12.84a37.68,37.68,0,0,1-11.71-27.31c0-.33,0-.67,0-1l3.91-100.2L331,521.82a38.49,38.49,0,0,1,38.57-37.47c1.17,0,2.32.06,3.47.17.82,1.08,1.59,2.18,2.33,3.3,2,3,4.75,7.73,8,13.67,1.33,2.45,2.73,5.1,4.2,7.91.89,1.69,8.56,25.62,16,50.06L400.3,585l-5.94,46,24.37-16,17.16-11.27,2,3.39,5.3,8.84,10.22,17Z"/><path class="cls-4" d="M443.39,609.85c0,2.07-.06,4.1-.17,6.11a118.81,118.81,0,0,1-1.93,16.5,96.31,96.31,0,0,1-8.89,26.3c-.56,1.11-1.16,2.21-1.77,3.28q-2.36,1.23-4.76,2.43c-.26.13-.53.27-.8.39q-10.17,5.05-20.72,9.46A348.66,348.66,0,0,1,361.79,689q-4.12,1.13-8.29,2.15-8.12,2-16.4,3.64a352.84,352.84,0,0,1-68.23,6.62l-4.55,0c-.47,0-.93,0-1.4,0-1.34,0-2.73,0-4.14-.08a351.55,351.55,0,0,1-80.13-11.55q-3.14-.83-6.22-1.71a347.81,347.81,0,0,1-57.84-22.17C94.17,623.78,98,601.34,94.3,550.37c7.6-19,136.08-5.58,235,15.86,26.85,5.82,51.51,12.23,71,18.75,20.13,6.73,34.73,13.57,40.45,20A9.72,9.72,0,0,1,443.39,609.85Z"/><path class="cls-1" d="M94.31,559.1c-.19-3.16-.4-6.42-.65-9.81C106,518.47,437.16,573,442.75,608.76c0,3.28-.16,6.46-.39,9.56C428.83,583.06,114.22,531.2,94.31,559.1Z"/></g></g></svg>