<svg xmlns="http://www.w3.org/2000/svg" viewBox="0 0 1065.79 698.05"><defs><style>.cls-1{fill:#f1f1f1;}.cls-2{fill:#ffb7b7;}.cls-3{fill:#2f2e41;}.cls-4{fill:#f0f;}.cls-5{fill:#06061b;}.cls-6{fill:#e5e5e5;}.cls-7{fill:#fff;}.cls-8{fill:#6c63ff;}.cls-9{fill:#3f3d56;}.cls-10{fill:#cbcbcb;}</style></defs><g id="Layer_2" data-name="Layer 2"><g id="Layer_1-2" data-name="Layer 1"><path class="cls-1" d="M1036.93,696.51l1.58,0a365.47,365.47,0,0,0-5.61-52.38c-6.83-37.05-18.2-61.38-33.78-72.32l-.9,1.29C1034.61,598.62,1036.91,695.53,1036.93,696.51Z"/><path class="cls-1" d="M1017.18,696.13l1.58,0c0-1.75-1-43-17.26-54.4l-.91,1.29C1016.17,653.93,1017.17,695.71,1017.18,696.13Z"/><circle class="cls-1" cx="989.23" cy="565.31" r="7.9"/><circle class="cls-1" cx="993.14" cy="633.27" r="7.9"/><path class="cls-1" d="M1020.86,578a35.07,35.07,0,0,0,2.39,18,32,32,0,0,0,5.37-34.35A35.22,35.22,0,0,0,1020.86,578Z"/><path class="cls-1" d="M995,601a35.11,35.11,0,0,0,18.11.78,32,32,0,0,0-32.89-11.28A35.08,35.08,0,0,0,995,601Z"/><path class="cls-1" d="M994.74,661.18a24.62,24.62,0,0,0,12.69.55,22.4,22.4,0,0,0-23-7.91A24.64,24.64,0,0,0,994.74,661.18Z"/><path class="cls-1" d="M363.9,696.51l-2.3,0a531.78,531.78,0,0,1,8.15-76c9.92-53.77,26.41-89.09,49-105l1.31,1.87C367.27,554.43,363.92,695.09,363.9,696.51Z"/><path class="cls-1" d="M392.57,696l-2.29,0c.05-2.54,1.48-62.42,25.05-79l1.32,1.88C394,634.71,392.58,695.35,392.57,696Z"/><circle class="cls-1" cx="433.14" cy="506.08" r="11.47"/><circle class="cls-1" cx="427.46" cy="604.73" r="11.47"/><path class="cls-1" d="M387.23,524.43a50.92,50.92,0,0,1-3.47,26.08,46.43,46.43,0,0,1-7.8-49.86A51,51,0,0,1,387.23,524.43Z"/><path class="cls-1" d="M424.72,557.87A51,51,0,0,1,398.43,559a46.44,46.44,0,0,1,47.74-16.37A51,51,0,0,1,424.72,557.87Z"/><path class="cls-1" d="M425.14,645.23a35.76,35.76,0,0,1-18.42.79,32.57,32.57,0,0,1,33.46-11.48A35.77,35.77,0,0,1,425.14,645.23Z"/><path class="cls-2" d="M186.68,208l-5.52-33.76-15.58-3.9s-12.37-3.81-15.26,21.1-.65,71.43-.65,71.43L115.45,371.26a15.13,15.13,0,1,0,20.9,9l44.49-101.78Z"/><path class="cls-2" d="M281.44,181.47l-8.18-33.22,12.8-9.7s9.88-8.36,22.32,13.41S337,217.4,337,217.4l74,86.21a15.13,15.13,0,1,1-15.67,16.49L314.48,244Z"/><polygon class="cls-2" points="345.4 678.82 363.96 678.82 372.79 607.23 345.39 607.23 345.4 678.82"/><path class="cls-3" d="M340.66,672.76h36.55a23.29,23.29,0,0,1,23.3,23.29v.75H340.67Z"/><polygon class="cls-2" points="112.28 678.82 130.84 678.82 139.66 607.23 112.27 607.23 112.28 678.82"/><path class="cls-3" d="M107.54,672.76h36.55a23.28,23.28,0,0,1,23.29,23.29v.75H107.54Z"/><circle class="cls-3" cx="226.1" cy="67.65" r="50.19"/><ellipse class="cls-4" cx="175.9" cy="29.57" rx="20.77" ry="15.58" transform="translate(30.61 133.04) rotate(-45)"/><ellipse class="cls-4" cx="259.32" cy="16.49" rx="15.58" ry="20.77" transform="translate(142.29 248.48) rotate(-66.87)"/><circle class="cls-2" cx="227.69" cy="79.63" r="42.6"/><path class="cls-5" d="M182.93,52.84A57.9,57.9,0,0,0,216,63.07,35.45,35.45,0,0,1,202,68.86a116.77,116.77,0,0,0,47.72.27,30.85,30.85,0,0,0,10-3.43,12.69,12.69,0,0,0,6.17-8.25c1-6-3.62-11.41-8.46-15.08A62.39,62.39,0,0,0,205,31.9c-5.86,1.51-11.73,4.07-15.53,8.77s-4.93,12-1.31,16.8Z"/><path class="cls-4" d="M206.34,135l-42.16,34.44L201,257.31l.7,14.05s-38.24,35.26-61.91,133.77S68.36,634.51,68.36,634.51L164,657.9l66.48-222.82,84.74,174.81,12.05,51.71,73.91-20.52L372.63,502.32l-70-215.38,5.74-59.5s12.81-29.7-9.43-61.14l-7-29.54-36.11-6.16Z"/><path class="cls-6" d="M915.36,447.64H622.62a8.82,8.82,0,0,1-8.81-8.81V340.07a8.81,8.81,0,0,1,8.81-8.81H915.36a8.81,8.81,0,0,1,8.81,8.81v98.76A8.82,8.82,0,0,1,915.36,447.64Z"/><rect class="cls-7" x="659.66" y="357.71" width="77.59" height="8.82"/><circle class="cls-8" cx="839.53" cy="363" r="5.29"/><circle class="cls-8" cx="857.16" cy="363" r="5.29"/><circle class="cls-8" cx="874.8" cy="363" r="5.29"/><path class="cls-6" d="M915.36,572.85H622.62a8.83,8.83,0,0,1-8.81-8.82V465.28a8.83,8.83,0,0,1,8.81-8.82H915.36a8.83,8.83,0,0,1,8.81,8.82V564A8.83,8.83,0,0,1,915.36,572.85Z"/><rect class="cls-7" x="659.66" y="482.91" width="77.59" height="8.82"/><circle class="cls-8" cx="839.53" cy="488.2" r="5.29"/><circle class="cls-8" cx="857.16" cy="488.2" r="5.29"/><circle class="cls-8" cx="874.8" cy="488.2" r="5.29"/><path class="cls-6" d="M915.36,698.05H622.62a8.82,8.82,0,0,1-8.81-8.82V590.48a8.83,8.83,0,0,1,8.81-8.82H915.36a8.83,8.83,0,0,1,8.81,8.82v98.75A8.82,8.82,0,0,1,915.36,698.05Z"/><rect class="cls-7" x="659.66" y="608.12" width="77.59" height="8.82"/><circle class="cls-8" cx="839.53" cy="613.41" r="5.29"/><circle class="cls-8" cx="857.16" cy="613.41" r="5.29"/><circle class="cls-8" cx="874.8" cy="613.41" r="5.29"/><path class="cls-9" d="M564.08,485.12A66.66,66.66,0,0,1,547.56,483l-1.07-.29-1-.5c-35.68-17.88-65.77-41.51-89.46-70.21a266.11,266.11,0,0,1-45.16-80.2A308.85,308.85,0,0,1,393.43,223c0-.78,0-1.38,0-1.79,0-18,10-33.77,25.44-40.21,11.82-4.92,119.19-49,126.94-52.21,14.61-7.32,30.2-1.21,32.69-.14,5.6,2.29,104.85,42.88,126.3,53.09,22.1,10.53,28,29.44,28,38.95,0,43.08-7.46,83.33-22.17,119.65a276.9,276.9,0,0,1-49.79,80.24c-40.64,45.73-81.29,61.95-81.68,62.09A44.37,44.37,0,0,1,564.08,485.12Zm-9.56-23.68c3.52.79,11.64,2,16.93.05,6.72-2.45,40.74-20.1,72.54-55.88,43.93-49.44,66.22-111.59,66.25-184.72-.08-1.48-1.13-12-15.12-18.71-21-10-124.2-52.2-125.24-52.62l-.29-.12c-2.16-.91-9-2.82-13.78-.33l-.95.44c-1.15.47-115.12,47.28-127.28,52.35-8.5,3.54-11.53,12.32-11.53,19.35,0,.51,0,1.26,0,2.23C415.05,273.51,426.63,396.64,554.52,461.44Z"/><path class="cls-4" d="M550.57,139.1s-115,47.24-127.33,52.37-18.48,17.46-18.48,29.78S395.52,394.36,550.57,472.1c0,0,14.07,3.89,24.75,0s146.22-69.61,146.22-251.37c0,0,0-18.48-21.57-28.75S574.15,139.1,574.15,139.1,561.35,133.45,550.57,139.1Z"/><path class="cls-5" d="M562.89,176.07v252s116-55.86,115-202.69Z"/><path class="cls-10" d="M1064.5,698.05H1.29a1.29,1.29,0,1,1,0-2.58H1064.5a1.29,1.29,0,0,1,0,2.58Z"/></g></g></svg>